<svg xmlns="http://www.w3.org/2000/svg" xmlns:xlink="http://www.w3.org/1999/xlink" contentStyleType="text/css" height="738px" preserveAspectRatio="none" style="width:693px;height:738px;" version="1.1" viewBox="0 0 693 738" width="693px" zoomAndPan="magnify"><defs/><g><!--class Result--><g id="elem_Result"><rect codeLine="2" fill="#F1F1F1" height="80.5938" id="Result" rx="2.5" ry="2.5" style="stroke:#181818;stroke-width:0.5;" width="164.25" x="465.5" y="7"/><ellipse cx="521.4316" cy="23" fill="#B4A7E5" rx="11" ry="11" style="stroke:#181818;stroke-width:1.0;"/><path d="M517.3535,18.7656 L517.3535,16.6094 L524.7441,16.6094 L524.7441,18.7656 L522.2754,18.7656 L522.2754,26.8438 L524.7441,26.8438 L524.7441,29 L517.3535,29 L517.3535,26.8438 L519.8223,26.8438 L519.8223,18.7656 L517.3535,18.7656 Z " fill="#000000"/><text fill="#000000" font-family="sans-serif" font-size="14" font-style="italic" lengthAdjust="spacing" textLength="43.8867" x="541.9316" y="27.8467">Result</text><line style="stroke:#181818;stroke-width:0.5;" x1="466.5" x2="628.75" y1="39" y2="39"/><text fill="#000000" font-family="sans-serif" font-size="14" lengthAdjust="spacing" textLength="152.25" x="471.5" y="55.9951">summaryClass: string</text><text fill="#000000" font-family="sans-serif" font-size="14" lengthAdjust="spacing" textLength="105.5537" x="471.5" y="72.292">cube: CubeCell</text><line style="stroke:#181818;stroke-width:0.5;" x1="466.5" x2="628.75" y1="79.5938" y2="79.5938"/></g><!--class CubeCell--><g id="elem_CubeCell"><rect codeLine="19" fill="#F1F1F1" height="129.4844" id="CubeCell" rx="2.5" ry="2.5" style="stroke:#181818;stroke-width:0.5;" width="207.8701" x="443.5" y="148"/><ellipse cx="512.0269" cy="164" fill="#B4A7E5" rx="11" ry="11" style="stroke:#181818;stroke-width:1.0;"/><path d="M507.9487,159.7656 L507.9487,157.6094 L515.3394,157.6094 L515.3394,159.7656 L512.8706,159.7656 L512.8706,167.8438 L515.3394,167.8438 L515.3394,170 L507.9487,170 L507.9487,167.8438 L510.4175,167.8438 L510.4175,159.7656 L507.9487,159.7656 Z " fill="#000000"/><text fill="#000000" font-family="sans-serif" font-size="14" font-style="italic" lengthAdjust="spacing" textLength="62.3164" x="532.5269" y="168.8467">CubeCell</text><line style="stroke:#181818;stroke-width:0.5;" x1="444.5" x2="650.3701" y1="180" y2="180"/><text fill="#000000" font-family="sans-serif" font-size="14" lengthAdjust="spacing" textLength="152.25" x="449.5" y="196.9951">summaryClass: string</text><text fill="#000000" font-family="sans-serif" font-size="14" lengthAdjust="spacing" textLength="105.8477" x="449.5" y="213.292">apex: CubeCell</text><text fill="#000000" font-family="sans-serif" font-size="14" lengthAdjust="spacing" textLength="64.5996" x="449.5" y="229.5889">null: bool</text><line style="stroke:#181818;stroke-width:0.5;" x1="444.5" x2="650.3701" y1="236.8906" y2="236.8906"/><text fill="#000000" font-family="sans-serif" font-size="14" lengthAdjust="spacing" textLength="163.8301" x="449.5" y="253.8857">rollUp(string): CubeCell</text><text fill="#000000" font-family="sans-serif" font-size="14" lengthAdjust="spacing" textLength="195.8701" x="449.5" y="270.1826">drillDown(string): CubeCells</text></g><!--class Cell--><g id="elem_Cell"><rect codeLine="9" fill="#F1F1F1" height="96.8906" id="Cell" rx="2.5" ry="2.5" style="stroke:#181818;stroke-width:0.5;" width="156.9287" x="251" y="164"/><ellipse cx="312.1304" cy="180" fill="#B4A7E5" rx="11" ry="11" style="stroke:#181818;stroke-width:1.0;"/><path d="M308.0522,175.7656 L308.0522,173.6094 L315.4429,173.6094 L315.4429,175.7656 L312.9741,175.7656 L312.9741,183.8438 L315.4429,183.8438 L315.4429,186 L308.0522,186 L308.0522,183.8438 L310.521,183.8438 L310.521,175.7656 L308.0522,175.7656 Z " fill="#000000"/><text fill="#000000" font-family="sans-serif" font-size="14" font-style="italic" lengthAdjust="spacing" textLength="26.168" x="332.6304" y="184.8467">Cell</text><line style="stroke:#181818;stroke-width:0.5;" x1="252" x2="406.9287" y1="196" y2="196"/><text fill="#000000" font-family="sans-serif" font-size="14" lengthAdjust="spacing" textLength="83.7334" x="257" y="212.9951">tuple: Tuple</text><text fill="#000000" font-family="sans-serif" font-size="14" lengthAdjust="spacing" textLength="144.9287" x="257" y="229.292">measures: Measures</text><text fill="#000000" font-family="sans-serif" font-size="14" lengthAdjust="spacing" textLength="130.3408" x="257" y="245.5889">measure: Measure</text><line style="stroke:#181818;stroke-width:0.5;" x1="252" x2="406.9287" y1="252.8906" y2="252.8906"/></g><!--class Tuple--><g id="elem_Tuple"><rect codeLine="51" fill="#F1F1F1" height="96.8906" id="Tuple" rx="2.5" ry="2.5" style="stroke:#181818;stroke-width:0.5;" width="187.4717" x="7" y="337"/><ellipse cx="77.0786" cy="353" fill="#B4A7E5" rx="11" ry="11" style="stroke:#181818;stroke-width:1.0;"/><path d="M73.0005,348.7656 L73.0005,346.6094 L80.3911,346.6094 L80.3911,348.7656 L77.9224,348.7656 L77.9224,356.8438 L80.3911,356.8438 L80.3911,359 L73.0005,359 L73.0005,356.8438 L75.4692,356.8438 L75.4692,348.7656 L73.0005,348.7656 Z " fill="#000000"/><text fill="#000000" font-family="sans-serif" font-size="14" font-style="italic" lengthAdjust="spacing" textLength="38.8145" x="97.5786" y="357.8467">Tuple</text><line style="stroke:#181818;stroke-width:0.5;" x1="8" x2="193.4717" y1="369" y2="369"/><text fill="#000000" font-family="sans-serif" font-size="14" lengthAdjust="spacing" textLength="152.25" x="13" y="385.9951">summaryClass: string</text><text fill="#000000" font-family="sans-serif" font-size="14" lengthAdjust="spacing" textLength="157.6299" x="13" y="402.292">condition: ?Expression</text><text fill="#000000" font-family="sans-serif" font-size="14" lengthAdjust="spacing" textLength="175.4717" x="13" y="418.5889">dimensionality: &lt;string&gt;</text><line style="stroke:#181818;stroke-width:0.5;" x1="8" x2="193.4717" y1="425.8906" y2="425.8906"/></g><!--class Measures--><g id="elem_Measures"><rect codeLine="59" fill="#F1F1F1" height="48" id="Measures" rx="2.5" ry="2.5" style="stroke:#181818;stroke-width:0.5;" width="99.1016" x="280" y="361.5"/><ellipse cx="295" cy="377.5" fill="#B4A7E5" rx="11" ry="11" style="stroke:#181818;stroke-width:1.0;"/><path d="M290.9219,373.2656 L290.9219,371.1094 L298.3125,371.1094 L298.3125,373.2656 L295.8438,373.2656 L295.8438,381.3438 L298.3125,381.3438 L298.3125,383.5 L290.9219,383.5 L290.9219,381.3438 L293.3906,381.3438 L293.3906,373.2656 L290.9219,373.2656 Z " fill="#000000"/><text fill="#000000" font-family="sans-serif" font-size="14" font-style="italic" lengthAdjust="spacing" textLength="67.1016" x="309" y="382.3467">Measures</text><line style="stroke:#181818;stroke-width:0.5;" x1="281" x2="378.1016" y1="393.5" y2="393.5"/><line style="stroke:#181818;stroke-width:0.5;" x1="281" x2="378.1016" y1="401.5" y2="401.5"/></g><!--class Measure--><g id="elem_Measure"><rect codeLine="43" fill="#F1F1F1" height="96.8906" id="Measure" rx="2.5" ry="2.5" style="stroke:#181818;stroke-width:0.5;" width="129.7969" x="296.5" y="635"/><ellipse cx="328.5952" cy="651" fill="#B4A7E5" rx="11" ry="11" style="stroke:#181818;stroke-width:1.0;"/><path d="M324.517,646.7656 L324.517,644.6094 L331.9077,644.6094 L331.9077,646.7656 L329.4389,646.7656 L329.4389,654.8438 L331.9077,654.8438 L331.9077,657 L324.517,657 L324.517,654.8438 L326.9858,654.8438 L326.9858,646.7656 L324.517,646.7656 Z " fill="#000000"/><text fill="#000000" font-family="sans-serif" font-size="14" font-style="italic" lengthAdjust="spacing" textLength="59.8076" x="346.3941" y="655.8467">Measure</text><line style="stroke:#181818;stroke-width:0.5;" x1="297.5" x2="425.2969" y1="667" y2="667"/><text fill="#000000" font-family="sans-serif" font-size="14" lengthAdjust="spacing" textLength="90.7197" x="302.5" y="683.9951">value: mixed</text><text fill="#000000" font-family="sans-serif" font-size="14" lengthAdjust="spacing" textLength="117.7969" x="302.5" y="700.292">rawValue: mixed</text><text fill="#000000" font-family="sans-serif" font-size="14" lengthAdjust="spacing" textLength="72.2217" x="302.5" y="716.5889">unit: ?Unit</text><line style="stroke:#181818;stroke-width:0.5;" x1="297.5" x2="425.2969" y1="723.8906" y2="723.8906"/></g><!--class Property--><g id="elem_Property"><rect codeLine="30" fill="#F1F1F1" height="80.5938" id="Property" rx="2.5" ry="2.5" style="stroke:#181818;stroke-width:0.5;" width="204.6846" x="103" y="494"/><ellipse cx="171.1953" cy="510" fill="#B4A7E5" rx="11" ry="11" style="stroke:#181818;stroke-width:1.0;"/><path d="M167.1172,505.7656 L167.1172,503.6094 L174.5078,503.6094 L174.5078,505.7656 L172.0391,505.7656 L172.0391,513.8438 L174.5078,513.8438 L174.5078,516 L167.1172,516 L167.1172,513.8438 L169.5859,513.8438 L169.5859,505.7656 L167.1172,505.7656 Z " fill="#000000"/><text fill="#000000" font-family="sans-serif" font-size="14" font-style="italic" lengthAdjust="spacing" textLength="59.7939" x="191.6953" y="514.8467">Property</text><line style="stroke:#181818;stroke-width:0.5;" x1="104" x2="306.6846" y1="526" y2="526"/><text fill="#000000" font-family="sans-serif" font-size="14" lengthAdjust="spacing" textLength="89.0586" x="109" y="542.9951">name: string</text><text fill="#000000" font-family="sans-serif" font-size="14" lengthAdjust="spacing" textLength="192.6846" x="109" y="559.292">label: TranslatableInterface</text><line style="stroke:#181818;stroke-width:0.5;" x1="104" x2="306.6846" y1="566.5938" y2="566.5938"/></g><!--class Dimension--><g id="elem_Dimension"><rect codeLine="35" fill="#F1F1F1" height="96.8906" id="Dimension" rx="2.5" ry="2.5" style="stroke:#181818;stroke-width:0.5;" width="171.7764" x="26.5" y="635"/><ellipse cx="70.9302" cy="651" fill="#B4A7E5" rx="11" ry="11" style="stroke:#181818;stroke-width:1.0;"/><path d="M66.8521,646.7656 L66.8521,644.6094 L74.2427,644.6094 L74.2427,646.7656 L71.7739,646.7656 L71.7739,654.8438 L74.2427,654.8438 L74.2427,657 L66.8521,657 L66.8521,654.8438 L69.3208,654.8438 L69.3208,646.7656 L66.8521,646.7656 Z " fill="#000000"/><text fill="#000000" font-family="sans-serif" font-size="14" font-style="italic" lengthAdjust="spacing" textLength="74.416" x="91.4302" y="655.8467">Dimension</text><line style="stroke:#181818;stroke-width:0.5;" x1="27.5" x2="197.2764" y1="667" y2="667"/><text fill="#000000" font-family="sans-serif" font-size="14" lengthAdjust="spacing" textLength="111.624" x="32.5" y="683.9951">member: mixed</text><text fill="#000000" font-family="sans-serif" font-size="14" lengthAdjust="spacing" textLength="135.8506" x="32.5" y="700.292">rawMember: mixed</text><text fill="#000000" font-family="sans-serif" font-size="14" lengthAdjust="spacing" textLength="159.7764" x="32.5" y="716.5889">displayMember: mixed</text><line style="stroke:#181818;stroke-width:0.5;" x1="27.5" x2="197.2764" y1="723.8906" y2="723.8906"/></g><!--reverse link Result to CubeCell--><g id="link_Result_CubeCell"><path codeLine="7" d="M547.5,100.37 C547.5,118.28 547.5,127.85 547.5,147.91 " fill="none" id="Result-backto-CubeCell" style="stroke:#181818;stroke-width:1.0;"/><polygon fill="none" points="547.5,88.37,543.5,94.37,547.5,100.37,551.5,94.37,547.5,88.37" style="stroke:#181818;stroke-width:1.0;"/></g><!--reverse link Cell to Tuple--><g id="link_Cell_Tuple"><path codeLine="15" d="M256.0951,268.31 C224.4651,291.93 195.98,313.2 164.34,336.83 " fill="none" id="Cell-backto-Tuple" style="stroke:#181818;stroke-width:1.0;"/><polygon fill="none" points="265.71,261.13,258.5092,261.515,256.0951,268.31,263.2959,267.925,265.71,261.13" style="stroke:#181818;stroke-width:1.0;"/></g><!--reverse link Cell to Measures--><g id="link_Cell_Measures"><path codeLine="16" d="M329.5,273.13 C329.5,305.74 329.5,335.57 329.5,361.18 " fill="none" id="Cell-backto-Measures" style="stroke:#181818;stroke-width:1.0;"/><polygon fill="none" points="329.5,261.13,325.5,267.13,329.5,273.13,333.5,267.13,329.5,261.13" style="stroke:#181818;stroke-width:1.0;"/></g><!--reverse link Cell to Measure--><g id="link_Cell_Measure"><path codeLine="17" d="M368.7304,271.3119 C382.0904,293.3519 389.72,310.28 396.5,337 C422.9,441.02 395.67,567.42 376.62,634.79 " fill="none" id="Cell-backto-Measure" style="stroke:#181818;stroke-width:1.0;"/><polygon fill="none" points="362.51,261.05,362.1996,268.2544,368.7304,271.3119,369.0408,264.1075,362.51,261.05" style="stroke:#181818;stroke-width:1.0;"/></g><!--reverse link Cell to CubeCell--><g id="link_Cell_CubeCell"><path codeLine="27" d="M426.27,212.5 C437.96,212.5 431.66,212.5 443.35,212.5 " fill="none" id="Cell-backto-CubeCell" style="stroke:#181818;stroke-width:1.0;"/><polygon fill="none" points="408.27,212.5,426.27,218.5,426.27,206.5,408.27,212.5" style="stroke:#181818;stroke-width:1.0;"/></g><!--reverse link CubeCell to CubeCell--><g id="link_CubeCell_CubeCell"><path codeLine="28" d="M663.5945,185.106 C683.9145,188.516 686.5,196.32 686.5,212.5 C686.5,228.68 672.08,238.47 651.76,241.88 " fill="none" id="CubeCell-backto-CubeCell" style="stroke:#181818;stroke-width:1.0;"/><polygon fill="none" points="651.76,183.12,657.0153,188.0578,663.5945,185.106,658.3393,180.1682,651.76,183.12" style="stroke:#181818;stroke-width:1.0;"/></g><!--reverse link Property to Dimension--><g id="link_Property_Dimension"><path codeLine="41" d="M170.7075,590.4921 C159.0875,608.8621 154.83,615.6 142.65,634.84 " fill="none" id="Property-backto-Dimension" style="stroke:#181818;stroke-width:1.0;"/><polygon fill="none" points="180.33,575.28,165.6368,587.2846,175.7782,593.6996,180.33,575.28" style="stroke:#181818;stroke-width:1.0;"/></g><!--reverse link Property to Measure--><g id="link_Property_Measure"><path codeLine="49" d="M260.8187,587.626 C280.3087,605.996 290.5,615.6 310.93,634.84 " fill="none" id="Property-backto-Measure" style="stroke:#181818;stroke-width:1.0;"/><polygon fill="none" points="247.72,575.28,256.7034,591.9922,264.934,583.2598,247.72,575.28" style="stroke:#181818;stroke-width:1.0;"/></g><!--reverse link Tuple to Dimension--><g id="link_Tuple_Dimension"><path codeLine="57" d="M89.504,446.114 C83.494,484.294 79.6,527.27 85.5,575 C87.96,594.86 92.87,616.33 97.85,634.82 " fill="none" id="Tuple-backto-Dimension" style="stroke:#181818;stroke-width:1.0;"/><polygon fill="none" points="91.37,434.26,86.4857,439.565,89.504,446.114,94.3884,440.809,91.37,434.26" style="stroke:#181818;stroke-width:1.0;"/></g><!--reverse link Measures to Measure--><g id="link_Measures_Measure"><path codeLine="62" d="M333.2997,421.6605 C338.5297,470.0405 349.4,570.53 356.36,634.93 " fill="none" id="Measures-backto-Measure" style="stroke:#181818;stroke-width:1.0;"/><polygon fill="none" points="332.01,409.73,328.678,416.1252,333.2997,421.6605,336.6317,415.2653,332.01,409.73" style="stroke:#181818;stroke-width:1.0;"/></g><!--SRC=[XLHRRzem57xth_0ZF53H5g4kghQfWKrZe5Kjy7v2Jf65SnpvGa7R_lkEapJSjZKF2VxiyrryRDn6KGaM2crM6ynb1glDsff0UMgqiT9R8CSBaBmGYZpQ5rYXV48Nj9S_XUJ7XQ80kqyrE9T8vwsYTJMn2XacCkLtYbgBtq8qTQRNEy17j77SaFfGQYwUnqy550WkM6I5MVFh66xHg5BHH8swkXssXUV8YOV6rtlXeCJTKRW8KT0waPanzT0QhHTbfwxfdgtDhT9wP5xfSjwr6Uv_7UrJQ-nVk_TeJOdMxnld10MUEDQG8VkRnvPgy91f_FPM72KFJ2DL83bbgA4giCZG9h9GEyphRF0wkm1pvKeD-zC99cwDSPxUWVnOiMb4exS57V1CRdcE1L8-aPyM_BaK-KjZgyFmxf4rb2lFvfXvl2lvi5HEwtIDRz3AxnDvNvTzZE8rDpVc__4So_FgTbGLj5O_8-M1WsWWlvXDvHPjrOFhgvl-pU1gs7a6BoT1o_vGzZyaruFazaukvgcCqrtH-VeubSu4othS2JQNXPYaAoQm1VaKoAju8dwKI9FHzpT0ZcchhA4YNl79SdPOC1pq7fINpsZPYLpEn0XV85xVCQrCpj4JLl_IknDJe7M0DNCZYPJ_FBpb_OctuGy0]--></g></svg>