<svg xmlns="http://www.w3.org/2000/svg" xmlns:xlink="http://www.w3.org/1999/xlink" contentStyleType="text/css" height="738px" preserveAspectRatio="none" style="width:553px;height:738px;" version="1.1" viewBox="0 0 553 738" width="553px" zoomAndPan="magnify"><defs/><g><!--class Result--><g id="elem_Result"><rect codeLine="2" fill="#F1F1F1" height="80.5938" id="Result" rx="2.5" ry="2.5" style="stroke:#181818;stroke-width:0.5;" width="164.25" x="325.5" y="7"/><ellipse cx="381.4316" cy="23" fill="#B4A7E5" rx="11" ry="11" style="stroke:#181818;stroke-width:1.0;"/><path d="M377.3535,18.7656 L377.3535,16.6094 L384.7441,16.6094 L384.7441,18.7656 L382.2754,18.7656 L382.2754,26.8438 L384.7441,26.8438 L384.7441,29 L377.3535,29 L377.3535,26.8438 L379.8223,26.8438 L379.8223,18.7656 L377.3535,18.7656 Z " fill="#000000"/><text fill="#000000" font-family="sans-serif" font-size="14" font-style="italic" lengthAdjust="spacing" textLength="43.8867" x="401.9316" y="27.8467">Result</text><line style="stroke:#181818;stroke-width:0.5;" x1="326.5" x2="488.75" y1="39" y2="39"/><text fill="#000000" font-family="sans-serif" font-size="14" lengthAdjust="spacing" textLength="152.25" x="331.5" y="55.9951">summaryClass: string</text><text fill="#000000" font-family="sans-serif" font-size="14" lengthAdjust="spacing" textLength="105.5537" x="331.5" y="72.292">cube: CubeCell</text><line style="stroke:#181818;stroke-width:0.5;" x1="326.5" x2="488.75" y1="79.5938" y2="79.5938"/></g><!--class CubeCell--><g id="elem_CubeCell"><rect codeLine="18" fill="#F1F1F1" height="129.4844" id="CubeCell" rx="2.5" ry="2.5" style="stroke:#181818;stroke-width:0.5;" width="207.8701" x="303.5" y="148"/><ellipse cx="372.0269" cy="164" fill="#B4A7E5" rx="11" ry="11" style="stroke:#181818;stroke-width:1.0;"/><path d="M367.9487,159.7656 L367.9487,157.6094 L375.3394,157.6094 L375.3394,159.7656 L372.8706,159.7656 L372.8706,167.8438 L375.3394,167.8438 L375.3394,170 L367.9487,170 L367.9487,167.8438 L370.4175,167.8438 L370.4175,159.7656 L367.9487,159.7656 Z " fill="#000000"/><text fill="#000000" font-family="sans-serif" font-size="14" font-style="italic" lengthAdjust="spacing" textLength="62.3164" x="392.5269" y="168.8467">CubeCell</text><line style="stroke:#181818;stroke-width:0.5;" x1="304.5" x2="510.3701" y1="180" y2="180"/><text fill="#000000" font-family="sans-serif" font-size="14" lengthAdjust="spacing" textLength="152.25" x="309.5" y="196.9951">summaryClass: string</text><text fill="#000000" font-family="sans-serif" font-size="14" lengthAdjust="spacing" textLength="105.8477" x="309.5" y="213.292">apex: CubeCell</text><text fill="#000000" font-family="sans-serif" font-size="14" lengthAdjust="spacing" textLength="64.5996" x="309.5" y="229.5889">null: bool</text><line style="stroke:#181818;stroke-width:0.5;" x1="304.5" x2="510.3701" y1="236.8906" y2="236.8906"/><text fill="#000000" font-family="sans-serif" font-size="14" lengthAdjust="spacing" textLength="163.8301" x="309.5" y="253.8857">rollUp(string): CubeCell</text><text fill="#000000" font-family="sans-serif" font-size="14" lengthAdjust="spacing" textLength="195.8701" x="309.5" y="270.1826">drillDown(string): CubeCells</text></g><!--class Cell--><g id="elem_Cell"><rect codeLine="9" fill="#F1F1F1" height="96.8906" id="Cell" rx="2.5" ry="2.5" style="stroke:#181818;stroke-width:0.5;" width="156.9287" x="111" y="164"/><ellipse cx="172.1304" cy="180" fill="#B4A7E5" rx="11" ry="11" style="stroke:#181818;stroke-width:1.0;"/><path d="M168.0522,175.7656 L168.0522,173.6094 L175.4429,173.6094 L175.4429,175.7656 L172.9741,175.7656 L172.9741,183.8438 L175.4429,183.8438 L175.4429,186 L168.0522,186 L168.0522,183.8438 L170.521,183.8438 L170.521,175.7656 L168.0522,175.7656 Z " fill="#000000"/><text fill="#000000" font-family="sans-serif" font-size="14" font-style="italic" lengthAdjust="spacing" textLength="26.168" x="192.6304" y="184.8467">Cell</text><line style="stroke:#181818;stroke-width:0.5;" x1="112" x2="266.9287" y1="196" y2="196"/><text fill="#000000" font-family="sans-serif" font-size="14" lengthAdjust="spacing" textLength="83.7334" x="117" y="212.9951">tuple: Tuple</text><text fill="#000000" font-family="sans-serif" font-size="14" lengthAdjust="spacing" textLength="144.9287" x="117" y="229.292">measures: Measures</text><text fill="#000000" font-family="sans-serif" font-size="14" lengthAdjust="spacing" textLength="130.3408" x="117" y="245.5889">measure: Measure</text><line style="stroke:#181818;stroke-width:0.5;" x1="112" x2="266.9287" y1="252.8906" y2="252.8906"/></g><!--class Tuple--><g id="elem_Tuple"><rect codeLine="50" fill="#F1F1F1" height="96.8906" id="Tuple" rx="2.5" ry="2.5" style="stroke:#181818;stroke-width:0.5;" width="187.4717" x="7" y="337"/><ellipse cx="77.0786" cy="353" fill="#B4A7E5" rx="11" ry="11" style="stroke:#181818;stroke-width:1.0;"/><path d="M73.0005,348.7656 L73.0005,346.6094 L80.3911,346.6094 L80.3911,348.7656 L77.9224,348.7656 L77.9224,356.8438 L80.3911,356.8438 L80.3911,359 L73.0005,359 L73.0005,356.8438 L75.4692,356.8438 L75.4692,348.7656 L73.0005,348.7656 Z " fill="#000000"/><text fill="#000000" font-family="sans-serif" font-size="14" font-style="italic" lengthAdjust="spacing" textLength="38.8145" x="97.5786" y="357.8467">Tuple</text><line style="stroke:#181818;stroke-width:0.5;" x1="8" x2="193.4717" y1="369" y2="369"/><text fill="#000000" font-family="sans-serif" font-size="14" lengthAdjust="spacing" textLength="152.25" x="13" y="385.9951">summaryClass: string</text><text fill="#000000" font-family="sans-serif" font-size="14" lengthAdjust="spacing" textLength="157.6299" x="13" y="402.292">condition: ?Expression</text><text fill="#000000" font-family="sans-serif" font-size="14" lengthAdjust="spacing" textLength="175.4717" x="13" y="418.5889">dimensionality: &lt;string&gt;</text><line style="stroke:#181818;stroke-width:0.5;" x1="8" x2="193.4717" y1="425.8906" y2="425.8906"/></g><!--class Measures--><g id="elem_Measures"><rect codeLine="58" fill="#F1F1F1" height="48" id="Measures" rx="2.5" ry="2.5" style="stroke:#181818;stroke-width:0.5;" width="99.1016" x="262" y="361.5"/><ellipse cx="277" cy="377.5" fill="#B4A7E5" rx="11" ry="11" style="stroke:#181818;stroke-width:1.0;"/><path d="M272.9219,373.2656 L272.9219,371.1094 L280.3125,371.1094 L280.3125,373.2656 L277.8438,373.2656 L277.8438,381.3438 L280.3125,381.3438 L280.3125,383.5 L272.9219,383.5 L272.9219,381.3438 L275.3906,381.3438 L275.3906,373.2656 L272.9219,373.2656 Z " fill="#000000"/><text fill="#000000" font-family="sans-serif" font-size="14" font-style="italic" lengthAdjust="spacing" textLength="67.1016" x="291" y="382.3467">Measures</text><line style="stroke:#181818;stroke-width:0.5;" x1="263" x2="360.1016" y1="393.5" y2="393.5"/><line style="stroke:#181818;stroke-width:0.5;" x1="263" x2="360.1016" y1="401.5" y2="401.5"/></g><!--class Property--><g id="elem_Property"><rect codeLine="29" fill="#F1F1F1" height="80.5938" id="Property" rx="2.5" ry="2.5" style="stroke:#181818;stroke-width:0.5;" width="204.6846" x="87" y="494"/><ellipse cx="155.1953" cy="510" fill="#B4A7E5" rx="11" ry="11" style="stroke:#181818;stroke-width:1.0;"/><path d="M151.1172,505.7656 L151.1172,503.6094 L158.5078,503.6094 L158.5078,505.7656 L156.0391,505.7656 L156.0391,513.8438 L158.5078,513.8438 L158.5078,516 L151.1172,516 L151.1172,513.8438 L153.5859,513.8438 L153.5859,505.7656 L151.1172,505.7656 Z " fill="#000000"/><text fill="#000000" font-family="sans-serif" font-size="14" font-style="italic" lengthAdjust="spacing" textLength="59.7939" x="175.6953" y="514.8467">Property</text><line style="stroke:#181818;stroke-width:0.5;" x1="88" x2="290.6846" y1="526" y2="526"/><text fill="#000000" font-family="sans-serif" font-size="14" lengthAdjust="spacing" textLength="89.0586" x="93" y="542.9951">name: string</text><text fill="#000000" font-family="sans-serif" font-size="14" lengthAdjust="spacing" textLength="192.6846" x="93" y="559.292">label: TranslatableInterface</text><line style="stroke:#181818;stroke-width:0.5;" x1="88" x2="290.6846" y1="566.5938" y2="566.5938"/></g><!--class Dimension--><g id="elem_Dimension"><rect codeLine="34" fill="#F1F1F1" height="96.8906" id="Dimension" rx="2.5" ry="2.5" style="stroke:#181818;stroke-width:0.5;" width="171.7764" x="10.5" y="635"/><ellipse cx="54.9302" cy="651" fill="#B4A7E5" rx="11" ry="11" style="stroke:#181818;stroke-width:1.0;"/><path d="M50.8521,646.7656 L50.8521,644.6094 L58.2427,644.6094 L58.2427,646.7656 L55.7739,646.7656 L55.7739,654.8438 L58.2427,654.8438 L58.2427,657 L50.8521,657 L50.8521,654.8438 L53.3208,654.8438 L53.3208,646.7656 L50.8521,646.7656 Z " fill="#000000"/><text fill="#000000" font-family="sans-serif" font-size="14" font-style="italic" lengthAdjust="spacing" textLength="74.416" x="75.4302" y="655.8467">Dimension</text><line style="stroke:#181818;stroke-width:0.5;" x1="11.5" x2="181.2764" y1="667" y2="667"/><text fill="#000000" font-family="sans-serif" font-size="14" lengthAdjust="spacing" textLength="111.624" x="16.5" y="683.9951">member: mixed</text><text fill="#000000" font-family="sans-serif" font-size="14" lengthAdjust="spacing" textLength="135.8506" x="16.5" y="700.292">rawMember: mixed</text><text fill="#000000" font-family="sans-serif" font-size="14" lengthAdjust="spacing" textLength="159.7764" x="16.5" y="716.5889">displayMember: mixed</text><line style="stroke:#181818;stroke-width:0.5;" x1="11.5" x2="181.2764" y1="723.8906" y2="723.8906"/></g><!--class Measure--><g id="elem_Measure"><rect codeLine="42" fill="#F1F1F1" height="96.8906" id="Measure" rx="2.5" ry="2.5" style="stroke:#181818;stroke-width:0.5;" width="129.7969" x="248.5" y="635"/><ellipse cx="280.5952" cy="651" fill="#B4A7E5" rx="11" ry="11" style="stroke:#181818;stroke-width:1.0;"/><path d="M276.517,646.7656 L276.517,644.6094 L283.9077,644.6094 L283.9077,646.7656 L281.4389,646.7656 L281.4389,654.8438 L283.9077,654.8438 L283.9077,657 L276.517,657 L276.517,654.8438 L278.9858,654.8438 L278.9858,646.7656 L276.517,646.7656 Z " fill="#000000"/><text fill="#000000" font-family="sans-serif" font-size="14" font-style="italic" lengthAdjust="spacing" textLength="59.8076" x="298.3941" y="655.8467">Measure</text><line style="stroke:#181818;stroke-width:0.5;" x1="249.5" x2="377.2969" y1="667" y2="667"/><text fill="#000000" font-family="sans-serif" font-size="14" lengthAdjust="spacing" textLength="90.7197" x="254.5" y="683.9951">value: mixed</text><text fill="#000000" font-family="sans-serif" font-size="14" lengthAdjust="spacing" textLength="117.7969" x="254.5" y="700.292">rawValue: mixed</text><text fill="#000000" font-family="sans-serif" font-size="14" lengthAdjust="spacing" textLength="72.2217" x="254.5" y="716.5889">unit: ?Unit</text><line style="stroke:#181818;stroke-width:0.5;" x1="249.5" x2="377.2969" y1="723.8906" y2="723.8906"/></g><!--reverse link Result to CubeCell--><g id="link_Result_CubeCell"><path codeLine="7" d="M407.5,100.37 C407.5,118.28 407.5,127.85 407.5,147.91 " fill="none" id="Result-backto-CubeCell" style="stroke:#181818;stroke-width:1.0;"/><polygon fill="none" points="407.5,88.37,403.5,94.37,407.5,100.37,411.5,94.37,407.5,88.37" style="stroke:#181818;stroke-width:1.0;"/></g><!--reverse link Cell to Tuple--><g id="link_Cell_Tuple"><path codeLine="15" d="M159.1711,271.7752 C146.8811,295.3952 137.61,313.2 125.31,336.83 " fill="none" id="Cell-backto-Tuple" style="stroke:#181818;stroke-width:1.0;"/><polygon fill="none" points="164.71,261.13,158.3921,264.6063,159.1711,271.7752,165.4889,268.2989,164.71,261.13" style="stroke:#181818;stroke-width:1.0;"/></g><!--reverse link Cell to Measures--><g id="link_Cell_Measures"><path codeLine="16" d="M230.4503,270.898 C253.7203,303.508 276.59,335.57 294.86,361.18 " fill="none" id="Cell-backto-Measures" style="stroke:#181818;stroke-width:1.0;"/><polygon fill="none" points="223.48,261.13,223.7091,268.3375,230.4503,270.898,230.2212,263.6906,223.48,261.13" style="stroke:#181818;stroke-width:1.0;"/></g><!--reverse link Cell to CubeCell--><g id="link_Cell_CubeCell"><path codeLine="26" d="M286.27,212.5 C297.96,212.5 291.66,212.5 303.35,212.5 " fill="none" id="Cell-backto-CubeCell" style="stroke:#181818;stroke-width:1.0;"/><polygon fill="none" points="268.27,212.5,286.27,218.5,286.27,206.5,268.27,212.5" style="stroke:#181818;stroke-width:1.0;"/></g><!--reverse link CubeCell to CubeCell--><g id="link_CubeCell_CubeCell"><path codeLine="27" d="M523.5945,185.106 C543.9145,188.516 546.5,196.32 546.5,212.5 C546.5,228.68 532.08,238.47 511.76,241.88 " fill="none" id="CubeCell-backto-CubeCell" style="stroke:#181818;stroke-width:1.0;"/><polygon fill="none" points="511.76,183.12,517.0153,188.0578,523.5945,185.106,518.3393,180.1682,511.76,183.12" style="stroke:#181818;stroke-width:1.0;"/></g><!--reverse link Property to Dimension--><g id="link_Property_Dimension"><path codeLine="40" d="M154.7075,590.4921 C143.0875,608.8621 138.83,615.6 126.65,634.84 " fill="none" id="Property-backto-Dimension" style="stroke:#181818;stroke-width:1.0;"/><polygon fill="none" points="164.33,575.28,149.6368,587.2846,159.7782,593.6996,164.33,575.28" style="stroke:#181818;stroke-width:1.0;"/></g><!--reverse link Property to Measure--><g id="link_Property_Measure"><path codeLine="48" d="M234.6634,589.0408 C250.1534,607.4108 257.07,615.6 273.3,634.84 " fill="none" id="Property-backto-Measure" style="stroke:#181818;stroke-width:1.0;"/><polygon fill="none" points="223.06,575.28,230.0765,592.9086,239.2504,585.173,223.06,575.28" style="stroke:#181818;stroke-width:1.0;"/></g><!--reverse link Tuple to Dimension--><g id="link_Tuple_Dimension"><path codeLine="56" d="M80.1357,445.5046 C74.4257,463.9746 72.33,474 69.5,494 C64.46,529.65 65.08,539.27 69.5,575 C71.96,594.86 76.87,616.33 81.85,634.82 " fill="none" id="Tuple-backto-Dimension" style="stroke:#181818;stroke-width:1.0;"/><polygon fill="none" points="83.68,434.04,78.0863,438.5909,80.1357,445.5046,85.7294,440.9538,83.68,434.04" style="stroke:#181818;stroke-width:1.0;"/></g><!--reverse link Measures to Measure--><g id="link_Measures_Measure"><path codeLine="61" d="M311.7394,421.7297 C312.0594,470.1097 312.74,570.53 313.18,634.93 " fill="none" id="Measures-backto-Measure" style="stroke:#181818;stroke-width:1.0;"/><polygon fill="none" points="311.66,409.73,307.6998,415.7563,311.7394,421.7297,315.6996,415.7034,311.66,409.73" style="stroke:#181818;stroke-width:1.0;"/></g><!--SRC=[XLJTRzem47_tNt6Fy415EuIwgEgc1JQDWLQrmFk5N965OqV-eA1j__lEIGXfqTOynBcpx_VXi-DsKfTeiL1ciwCSCjpijjO4dQT66GlUedQyWBGNGcfFzXat18_aWlBmIm0_BXG5scEgqBa4dBTIRwk9JSWeWPJVAIab_WZHr9d1u9pkmCQu0VMXL5oyZ4ELA0XTiCGCY-QhcswpaQM2YHnrTHksXLtAHiPxNh2aGyTBJEcWL0APCNLeZLAhibVNzD-ipQrKQc9UzEMyQoNV_UviIoliNvlrO4r9rXyRvHeBUgLOOKQiRnaxgD1ZfkZxgJXIdf4ciY3jfD4DL455HZQ1GXuehxtXo-8YcKjNAZo-dc3WLXZx6Pp1kunD9ng-FQf0R-ZMRtD1Iv_0fnKFboIdvdSegjw_UqADpgLdSOmyFPHyDYgbjRj6DohfZmdSrMNtaRp6viRytvvZUbxTHbL1A_KpwJom4ONQhnPps9EjUd1zTJEy6LsDUq_eOHOK3CSm_9XSZv8Fjx1QfX2d-wBtxM4EpWJBVDm95fU5wAGlPhX7U0pQotWYVfQaPvCVfmHCzLvQeujuesVhnNd1U3Ju8ZqyaMKbi5w82JrZlArJlJ4vMq-O_UlWLinHRmDk6PkqIFbVuItlJxmDVm40]--></g></svg>