<svg xmlns="http://www.w3.org/2000/svg" xmlns:xlink="http://www.w3.org/1999/xlink" contentStyleType="text/css" height="738px" preserveAspectRatio="none" style="width:708px;height:738px;" version="1.1" viewBox="0 0 708 738" width="708px" zoomAndPan="magnify"><defs/><g><!--class Result--><g id="elem_Result"><rect codeLine="2" fill="#F1F1F1" height="80.5938" id="Result" rx="2.5" ry="2.5" style="stroke:#181818;stroke-width:0.5;" width="164.25" x="480.5" y="7"/><ellipse cx="536.4316" cy="23" fill="#B4A7E5" rx="11" ry="11" style="stroke:#181818;stroke-width:1.0;"/><path d="M532.3535,18.7656 L532.3535,16.6094 L539.7441,16.6094 L539.7441,18.7656 L537.2754,18.7656 L537.2754,26.8438 L539.7441,26.8438 L539.7441,29 L532.3535,29 L532.3535,26.8438 L534.8223,26.8438 L534.8223,18.7656 L532.3535,18.7656 Z " fill="#000000"/><text fill="#000000" font-family="sans-serif" font-size="14" font-style="italic" lengthAdjust="spacing" textLength="43.8867" x="556.9316" y="27.8467">Result</text><line style="stroke:#181818;stroke-width:0.5;" x1="481.5" x2="643.75" y1="39" y2="39"/><text fill="#000000" font-family="sans-serif" font-size="14" lengthAdjust="spacing" textLength="152.25" x="486.5" y="55.9951">summaryClass: string</text><text fill="#000000" font-family="sans-serif" font-size="14" lengthAdjust="spacing" textLength="105.5537" x="486.5" y="72.292">cube: CubeCell</text><line style="stroke:#181818;stroke-width:0.5;" x1="481.5" x2="643.75" y1="79.5938" y2="79.5938"/></g><!--class CubeCell--><g id="elem_CubeCell"><rect codeLine="19" fill="#F1F1F1" height="129.4844" id="CubeCell" rx="2.5" ry="2.5" style="stroke:#181818;stroke-width:0.5;" width="207.8701" x="458.5" y="148"/><ellipse cx="527.0269" cy="164" fill="#B4A7E5" rx="11" ry="11" style="stroke:#181818;stroke-width:1.0;"/><path d="M522.9487,159.7656 L522.9487,157.6094 L530.3394,157.6094 L530.3394,159.7656 L527.8706,159.7656 L527.8706,167.8438 L530.3394,167.8438 L530.3394,170 L522.9487,170 L522.9487,167.8438 L525.4175,167.8438 L525.4175,159.7656 L522.9487,159.7656 Z " fill="#000000"/><text fill="#000000" font-family="sans-serif" font-size="14" font-style="italic" lengthAdjust="spacing" textLength="62.3164" x="547.5269" y="168.8467">CubeCell</text><line style="stroke:#181818;stroke-width:0.5;" x1="459.5" x2="665.3701" y1="180" y2="180"/><text fill="#000000" font-family="sans-serif" font-size="14" lengthAdjust="spacing" textLength="152.25" x="464.5" y="196.9951">summaryClass: string</text><text fill="#000000" font-family="sans-serif" font-size="14" lengthAdjust="spacing" textLength="105.8477" x="464.5" y="213.292">apex: CubeCell</text><text fill="#000000" font-family="sans-serif" font-size="14" lengthAdjust="spacing" textLength="64.5996" x="464.5" y="229.5889">null: bool</text><line style="stroke:#181818;stroke-width:0.5;" x1="459.5" x2="665.3701" y1="236.8906" y2="236.8906"/><text fill="#000000" font-family="sans-serif" font-size="14" lengthAdjust="spacing" textLength="163.8301" x="464.5" y="253.8857">rollUp(string): CubeCell</text><text fill="#000000" font-family="sans-serif" font-size="14" lengthAdjust="spacing" textLength="195.8701" x="464.5" y="270.1826">drillDown(string): CubeCells</text></g><!--class Cell--><g id="elem_Cell"><rect codeLine="9" fill="#F1F1F1" height="96.8906" id="Cell" rx="2.5" ry="2.5" style="stroke:#181818;stroke-width:0.5;" width="187.6631" x="235.5" y="164"/><ellipse cx="311.9976" cy="180" fill="#B4A7E5" rx="11" ry="11" style="stroke:#181818;stroke-width:1.0;"/><path d="M307.9194,175.7656 L307.9194,173.6094 L315.3101,173.6094 L315.3101,175.7656 L312.8413,175.7656 L312.8413,183.8438 L315.3101,183.8438 L315.3101,186 L307.9194,186 L307.9194,183.8438 L310.3882,183.8438 L310.3882,175.7656 L307.9194,175.7656 Z " fill="#000000"/><text fill="#000000" font-family="sans-serif" font-size="14" font-style="italic" lengthAdjust="spacing" textLength="26.168" x="332.4976" y="184.8467">Cell</text><line style="stroke:#181818;stroke-width:0.5;" x1="236.5" x2="422.1631" y1="196" y2="196"/><text fill="#000000" font-family="sans-serif" font-size="14" lengthAdjust="spacing" textLength="175.6631" x="241.5" y="212.9951">coordinates: Coordinates</text><text fill="#000000" font-family="sans-serif" font-size="14" lengthAdjust="spacing" textLength="144.9287" x="241.5" y="229.292">measures: Measures</text><text fill="#000000" font-family="sans-serif" font-size="14" lengthAdjust="spacing" textLength="130.3408" x="241.5" y="245.5889">measure: Measure</text><line style="stroke:#181818;stroke-width:0.5;" x1="236.5" x2="422.1631" y1="252.8906" y2="252.8906"/></g><!--class Coordinates--><g id="elem_Coordinates"><rect codeLine="51" fill="#F1F1F1" height="96.8906" id="Coordinates" rx="2.5" ry="2.5" style="stroke:#181818;stroke-width:0.5;" width="187.4717" x="7" y="337"/><ellipse cx="54.3423" cy="353" fill="#B4A7E5" rx="11" ry="11" style="stroke:#181818;stroke-width:1.0;"/><path d="M50.2642,348.7656 L50.2642,346.6094 L57.6548,346.6094 L57.6548,348.7656 L55.186,348.7656 L55.186,356.8438 L57.6548,356.8438 L57.6548,359 L50.2642,359 L50.2642,356.8438 L52.7329,356.8438 L52.7329,348.7656 L50.2642,348.7656 Z " fill="#000000"/><text fill="#000000" font-family="sans-serif" font-size="14" font-style="italic" lengthAdjust="spacing" textLength="84.2871" x="74.8423" y="357.8467">Coordinates</text><line style="stroke:#181818;stroke-width:0.5;" x1="8" x2="193.4717" y1="369" y2="369"/><text fill="#000000" font-family="sans-serif" font-size="14" lengthAdjust="spacing" textLength="152.25" x="13" y="385.9951">summaryClass: string</text><text fill="#000000" font-family="sans-serif" font-size="14" lengthAdjust="spacing" textLength="157.6299" x="13" y="402.292">condition: ?Expression</text><text fill="#000000" font-family="sans-serif" font-size="14" lengthAdjust="spacing" textLength="175.4717" x="13" y="418.5889">dimensionality: &lt;string&gt;</text><line style="stroke:#181818;stroke-width:0.5;" x1="8" x2="193.4717" y1="425.8906" y2="425.8906"/></g><!--class Measures--><g id="elem_Measures"><rect codeLine="59" fill="#F1F1F1" height="48" id="Measures" rx="2.5" ry="2.5" style="stroke:#181818;stroke-width:0.5;" width="99.1016" x="280" y="361.5"/><ellipse cx="295" cy="377.5" fill="#B4A7E5" rx="11" ry="11" style="stroke:#181818;stroke-width:1.0;"/><path d="M290.9219,373.2656 L290.9219,371.1094 L298.3125,371.1094 L298.3125,373.2656 L295.8438,373.2656 L295.8438,381.3438 L298.3125,381.3438 L298.3125,383.5 L290.9219,383.5 L290.9219,381.3438 L293.3906,381.3438 L293.3906,373.2656 L290.9219,373.2656 Z " fill="#000000"/><text fill="#000000" font-family="sans-serif" font-size="14" font-style="italic" lengthAdjust="spacing" textLength="67.1016" x="309" y="382.3467">Measures</text><line style="stroke:#181818;stroke-width:0.5;" x1="281" x2="378.1016" y1="393.5" y2="393.5"/><line style="stroke:#181818;stroke-width:0.5;" x1="281" x2="378.1016" y1="401.5" y2="401.5"/></g><!--class Measure--><g id="elem_Measure"><rect codeLine="43" fill="#F1F1F1" height="96.8906" id="Measure" rx="2.5" ry="2.5" style="stroke:#181818;stroke-width:0.5;" width="129.7969" x="296.5" y="635"/><ellipse cx="328.5952" cy="651" fill="#B4A7E5" rx="11" ry="11" style="stroke:#181818;stroke-width:1.0;"/><path d="M324.517,646.7656 L324.517,644.6094 L331.9077,644.6094 L331.9077,646.7656 L329.4389,646.7656 L329.4389,654.8438 L331.9077,654.8438 L331.9077,657 L324.517,657 L324.517,654.8438 L326.9858,654.8438 L326.9858,646.7656 L324.517,646.7656 Z " fill="#000000"/><text fill="#000000" font-family="sans-serif" font-size="14" font-style="italic" lengthAdjust="spacing" textLength="59.8076" x="346.3941" y="655.8467">Measure</text><line style="stroke:#181818;stroke-width:0.5;" x1="297.5" x2="425.2969" y1="667" y2="667"/><text fill="#000000" font-family="sans-serif" font-size="14" lengthAdjust="spacing" textLength="90.7197" x="302.5" y="683.9951">value: mixed</text><text fill="#000000" font-family="sans-serif" font-size="14" lengthAdjust="spacing" textLength="117.7969" x="302.5" y="700.292">rawValue: mixed</text><text fill="#000000" font-family="sans-serif" font-size="14" lengthAdjust="spacing" textLength="72.2217" x="302.5" y="716.5889">unit: ?Unit</text><line style="stroke:#181818;stroke-width:0.5;" x1="297.5" x2="425.2969" y1="723.8906" y2="723.8906"/></g><!--class Property--><g id="elem_Property"><rect codeLine="30" fill="#F1F1F1" height="80.5938" id="Property" rx="2.5" ry="2.5" style="stroke:#181818;stroke-width:0.5;" width="204.6846" x="103" y="494"/><ellipse cx="171.1953" cy="510" fill="#B4A7E5" rx="11" ry="11" style="stroke:#181818;stroke-width:1.0;"/><path d="M167.1172,505.7656 L167.1172,503.6094 L174.5078,503.6094 L174.5078,505.7656 L172.0391,505.7656 L172.0391,513.8438 L174.5078,513.8438 L174.5078,516 L167.1172,516 L167.1172,513.8438 L169.5859,513.8438 L169.5859,505.7656 L167.1172,505.7656 Z " fill="#000000"/><text fill="#000000" font-family="sans-serif" font-size="14" font-style="italic" lengthAdjust="spacing" textLength="59.7939" x="191.6953" y="514.8467">Property</text><line style="stroke:#181818;stroke-width:0.5;" x1="104" x2="306.6846" y1="526" y2="526"/><text fill="#000000" font-family="sans-serif" font-size="14" lengthAdjust="spacing" textLength="89.0586" x="109" y="542.9951">name: string</text><text fill="#000000" font-family="sans-serif" font-size="14" lengthAdjust="spacing" textLength="192.6846" x="109" y="559.292">label: TranslatableInterface</text><line style="stroke:#181818;stroke-width:0.5;" x1="104" x2="306.6846" y1="566.5938" y2="566.5938"/></g><!--class Dimension--><g id="elem_Dimension"><rect codeLine="35" fill="#F1F1F1" height="96.8906" id="Dimension" rx="2.5" ry="2.5" style="stroke:#181818;stroke-width:0.5;" width="171.7764" x="26.5" y="635"/><ellipse cx="70.9302" cy="651" fill="#B4A7E5" rx="11" ry="11" style="stroke:#181818;stroke-width:1.0;"/><path d="M66.8521,646.7656 L66.8521,644.6094 L74.2427,644.6094 L74.2427,646.7656 L71.7739,646.7656 L71.7739,654.8438 L74.2427,654.8438 L74.2427,657 L66.8521,657 L66.8521,654.8438 L69.3208,654.8438 L69.3208,646.7656 L66.8521,646.7656 Z " fill="#000000"/><text fill="#000000" font-family="sans-serif" font-size="14" font-style="italic" lengthAdjust="spacing" textLength="74.416" x="91.4302" y="655.8467">Dimension</text><line style="stroke:#181818;stroke-width:0.5;" x1="27.5" x2="197.2764" y1="667" y2="667"/><text fill="#000000" font-family="sans-serif" font-size="14" lengthAdjust="spacing" textLength="111.624" x="32.5" y="683.9951">member: mixed</text><text fill="#000000" font-family="sans-serif" font-size="14" lengthAdjust="spacing" textLength="135.8506" x="32.5" y="700.292">rawMember: mixed</text><text fill="#000000" font-family="sans-serif" font-size="14" lengthAdjust="spacing" textLength="159.7764" x="32.5" y="716.5889">displayMember: mixed</text><line style="stroke:#181818;stroke-width:0.5;" x1="27.5" x2="197.2764" y1="723.8906" y2="723.8906"/></g><!--reverse link Result to CubeCell--><g id="link_Result_CubeCell"><path codeLine="7" d="M562.5,100.37 C562.5,118.28 562.5,127.85 562.5,147.91 " fill="none" id="Result-backto-CubeCell" style="stroke:#181818;stroke-width:1.0;"/><polygon fill="none" points="562.5,88.37,558.5,94.37,562.5,100.37,566.5,94.37,562.5,88.37" style="stroke:#181818;stroke-width:1.0;"/></g><!--reverse link Cell to Coordinates--><g id="link_Cell_Coordinates"><path codeLine="15" d="M256.0951,268.31 C224.4651,291.93 195.98,313.2 164.34,336.83 " fill="none" id="Cell-backto-Coordinates" style="stroke:#181818;stroke-width:1.0;"/><polygon fill="none" points="265.71,261.13,258.5092,261.515,256.0951,268.31,263.2959,267.925,265.71,261.13" style="stroke:#181818;stroke-width:1.0;"/></g><!--reverse link Cell to Measures--><g id="link_Cell_Measures"><path codeLine="16" d="M329.5,273.13 C329.5,305.74 329.5,335.57 329.5,361.18 " fill="none" id="Cell-backto-Measures" style="stroke:#181818;stroke-width:1.0;"/><polygon fill="none" points="329.5,261.13,325.5,267.13,329.5,273.13,333.5,267.13,329.5,261.13" style="stroke:#181818;stroke-width:1.0;"/></g><!--reverse link Cell to Measure--><g id="link_Cell_Measure"><path codeLine="17" d="M368.7304,271.3119 C382.0904,293.3519 389.72,310.28 396.5,337 C422.9,441.02 395.67,567.42 376.62,634.79 " fill="none" id="Cell-backto-Measure" style="stroke:#181818;stroke-width:1.0;"/><polygon fill="none" points="362.51,261.05,362.1996,268.2544,368.7304,271.3119,369.0408,264.1075,362.51,261.05" style="stroke:#181818;stroke-width:1.0;"/></g><!--reverse link Cell to CubeCell--><g id="link_Cell_CubeCell"><path codeLine="27" d="M441.7,212.5 C453.27,212.5 446.83,212.5 458.4,212.5 " fill="none" id="Cell-backto-CubeCell" style="stroke:#181818;stroke-width:1.0;"/><polygon fill="none" points="423.7,212.5,441.7,218.5,441.7,206.5,423.7,212.5" style="stroke:#181818;stroke-width:1.0;"/></g><!--reverse link CubeCell to CubeCell--><g id="link_CubeCell_CubeCell"><path codeLine="28" d="M678.5945,185.106 C698.9145,188.516 701.5,196.32 701.5,212.5 C701.5,228.68 687.08,238.47 666.76,241.88 " fill="none" id="CubeCell-backto-CubeCell" style="stroke:#181818;stroke-width:1.0;"/><polygon fill="none" points="666.76,183.12,672.0153,188.0578,678.5945,185.106,673.3393,180.1682,666.76,183.12" style="stroke:#181818;stroke-width:1.0;"/></g><!--reverse link Property to Dimension--><g id="link_Property_Dimension"><path codeLine="41" d="M170.7075,590.4921 C159.0875,608.8621 154.83,615.6 142.65,634.84 " fill="none" id="Property-backto-Dimension" style="stroke:#181818;stroke-width:1.0;"/><polygon fill="none" points="180.33,575.28,165.6368,587.2846,175.7782,593.6996,180.33,575.28" style="stroke:#181818;stroke-width:1.0;"/></g><!--reverse link Property to Measure--><g id="link_Property_Measure"><path codeLine="49" d="M260.8187,587.626 C280.3087,605.996 290.5,615.6 310.93,634.84 " fill="none" id="Property-backto-Measure" style="stroke:#181818;stroke-width:1.0;"/><polygon fill="none" points="247.72,575.28,256.7034,591.9922,264.934,583.2598,247.72,575.28" style="stroke:#181818;stroke-width:1.0;"/></g><!--reverse link Coordinates to Dimension--><g id="link_Coordinates_Dimension"><path codeLine="57" d="M89.504,446.114 C83.494,484.294 79.6,527.27 85.5,575 C87.96,594.86 92.87,616.33 97.85,634.82 " fill="none" id="Coordinates-backto-Dimension" style="stroke:#181818;stroke-width:1.0;"/><polygon fill="none" points="91.37,434.26,86.4857,439.565,89.504,446.114,94.3884,440.809,91.37,434.26" style="stroke:#181818;stroke-width:1.0;"/></g><!--reverse link Measures to Measure--><g id="link_Measures_Measure"><path codeLine="62" d="M333.2997,421.6605 C338.5297,470.0405 349.4,570.53 356.36,634.93 " fill="none" id="Measures-backto-Measure" style="stroke:#181818;stroke-width:1.0;"/><polygon fill="none" points="332.01,409.73,328.678,416.1252,333.2997,421.6605,336.6317,415.2653,332.01,409.73" style="stroke:#181818;stroke-width:1.0;"/></g><!--SRC=[XLHBRzf04BxxL-mH3aGaHIYrehQgeLKfg54Ik8_j2LgndhNsGK1j_tjdRSSsq3OSWFrcvtlih6rtaaemK2YTxJ0NAMIxhT6UyaGhROGpG9Ot8BaeakJGF4E6uW6jLqxyZ0H_h2yACCT4WRMniCv8sbQ5pASOYuI_4rGg-Xr5JPyUZJguHnlM3MccjSabWKFcJBf5LImGh3UXich-zU4M3OeLPQNNusZ1jlqSEN7LE7qhBfHuwCKD47cbOf5gNI-DLcfT3kgUuTdUt4YbPlg5BkksJNBtgtTohR5_dUUzqIKQTsoS4nHuubX1YkplAGnPWODKuRVNvY3PCSraWMIbfeQgm2954uj27Z2liy7BwWBCfIqL74yBJDmQupoZZhols0oYqTk3ydWcjpd7F4aNYuzh_haK-TjWkolnvbNMb4l75fb_VYZvobH-wuoDUr3I7MDnLxTzg6RMK-0X_JzgCC4zxQfgQ6r_GiezXr90RhrQYZsQQXxNLpVZcydLTF08JYoy4kEf6B-FhoVnkrknVaf4A0-ZmTVxfR3Q6zRZgR35r8SymsW1Un0FdfmCj-D7YRIOVNy5n9psqcWgmWjWiLbr6wQJqMVfn2CQTY8sgsY6pn0UxZbbcZDlOrR_ChgDba1R3rlcHk83OLx3fnIUZ3y0]--></g></svg>