<svg xmlns="http://www.w3.org/2000/svg" xmlns:xlink="http://www.w3.org/1999/xlink" contentStyleType="text/css" height="740px" preserveAspectRatio="none" style="width:713px;height:740px;" version="1.1" viewBox="0 0 713 740" width="713px" zoomAndPan="magnify"><defs/><g><!--class Result--><g id="elem_Result"><rect codeLine="2" fill="#313139" height="80.5938" id="Result" rx="2.5" ry="2.5" style="stroke:#E7E7E7;stroke-width:0.5;" width="164.25" x="478.5" y="7"/><ellipse cx="534.4316" cy="23" fill="#352866" rx="11" ry="11" style="stroke:#E7E7E7;stroke-width:1.0;"/><path d="M530.3535,18.7656 L530.3535,16.6094 L537.7441,16.6094 L537.7441,18.7656 L535.2754,18.7656 L535.2754,26.8438 L537.7441,26.8438 L537.7441,29 L530.3535,29 L530.3535,26.8438 L532.8223,26.8438 L532.8223,18.7656 L530.3535,18.7656 Z " fill="#FFFFFF"/><text fill="#FFFFFF" font-family="sans-serif" font-size="14" font-style="italic" lengthAdjust="spacing" textLength="43.8867" x="554.9316" y="27.8467">Result</text><line style="stroke:#E7E7E7;stroke-width:0.5;" x1="479.5" x2="641.75" y1="39" y2="39"/><text fill="#FFFFFF" font-family="sans-serif" font-size="14" lengthAdjust="spacing" textLength="152.25" x="484.5" y="55.9951">summaryClass: string</text><text fill="#FFFFFF" font-family="sans-serif" font-size="14" lengthAdjust="spacing" textLength="105.5537" x="484.5" y="72.292">cube: CubeCell</text><line style="stroke:#E7E7E7;stroke-width:0.5;" x1="479.5" x2="641.75" y1="79.5938" y2="79.5938"/></g><!--class CubeCell--><g id="elem_CubeCell"><rect codeLine="20" fill="#313139" height="178.375" id="CubeCell" rx="2.5" ry="2.5" style="stroke:#E7E7E7;stroke-width:0.5;" width="220.8174" x="450" y="148"/><ellipse cx="525.0005" cy="164" fill="#352866" rx="11" ry="11" style="stroke:#E7E7E7;stroke-width:1.0;"/><path d="M520.9224,159.7656 L520.9224,157.6094 L528.313,157.6094 L528.313,159.7656 L525.8442,159.7656 L525.8442,167.8438 L528.313,167.8438 L528.313,170 L520.9224,170 L520.9224,167.8438 L523.3911,167.8438 L523.3911,159.7656 L520.9224,159.7656 Z " fill="#FFFFFF"/><text fill="#FFFFFF" font-family="sans-serif" font-size="14" font-style="italic" lengthAdjust="spacing" textLength="62.3164" x="545.5005" y="168.8467">CubeCell</text><line style="stroke:#E7E7E7;stroke-width:0.5;" x1="451" x2="669.8174" y1="180" y2="180"/><text fill="#FFFFFF" font-family="sans-serif" font-size="14" lengthAdjust="spacing" textLength="152.25" x="456" y="196.9951">summaryClass: string</text><text fill="#FFFFFF" font-family="sans-serif" font-size="14" lengthAdjust="spacing" textLength="105.8477" x="456" y="213.292">apex: CubeCell</text><text fill="#FFFFFF" font-family="sans-serif" font-size="14" lengthAdjust="spacing" textLength="64.5996" x="456" y="229.5889">null: bool</text><line style="stroke:#E7E7E7;stroke-width:0.5;" x1="451" x2="669.8174" y1="236.8906" y2="236.8906"/><text fill="#FFFFFF" font-family="sans-serif" font-size="14" lengthAdjust="spacing" textLength="163.8301" x="456" y="253.8857">rollUp(string): CubeCell</text><text fill="#FFFFFF" font-family="sans-serif" font-size="14" lengthAdjust="spacing" textLength="195.8701" x="456" y="270.1826">drillDown(string): CubeCells</text><text fill="#FFFFFF" font-family="sans-serif" font-size="14" lengthAdjust="spacing" textLength="206.1924" x="456" y="286.4795">slice(string, mixed): CubeCell</text><text fill="#FFFFFF" font-family="sans-serif" font-size="14" lengthAdjust="spacing" textLength="208.8174" x="456" y="302.7764">find(string, mixed): ?CubeCell</text><text fill="#FFFFFF" font-family="sans-serif" font-size="14" lengthAdjust="spacing" textLength="195.2275" x="456" y="319.0732">dice(?Expression): CubeCell</text></g><!--class Cell--><g id="elem_Cell"><rect codeLine="9" fill="#313139" height="113.1875" id="Cell" rx="2.5" ry="2.5" style="stroke:#E7E7E7;stroke-width:0.5;" width="254.9492" x="160" y="180.5"/><ellipse cx="270.1406" cy="196.5" fill="#352866" rx="11" ry="11" style="stroke:#E7E7E7;stroke-width:1.0;"/><path d="M266.0625,192.2656 L266.0625,190.1094 L273.4531,190.1094 L273.4531,192.2656 L270.9844,192.2656 L270.9844,200.3438 L273.4531,200.3438 L273.4531,202.5 L266.0625,202.5 L266.0625,200.3438 L268.5313,200.3438 L268.5313,192.2656 L266.0625,192.2656 Z " fill="#FFFFFF"/><text fill="#FFFFFF" font-family="sans-serif" font-size="14" font-style="italic" lengthAdjust="spacing" textLength="26.168" x="290.6406" y="201.3467">Cell</text><line style="stroke:#E7E7E7;stroke-width:0.5;" x1="161" x2="413.9492" y1="212.5" y2="212.5"/><text fill="#FFFFFF" font-family="sans-serif" font-size="14" lengthAdjust="spacing" textLength="175.6631" x="166" y="229.4951">coordinates: Coordinates</text><text fill="#FFFFFF" font-family="sans-serif" font-size="14" lengthAdjust="spacing" textLength="144.9287" x="166" y="245.792">measures: Measures</text><text fill="#FFFFFF" font-family="sans-serif" font-size="14" lengthAdjust="spacing" textLength="130.3408" x="166" y="262.0889">measure: Measure</text><text fill="#FFFFFF" font-family="sans-serif" font-size="14" lengthAdjust="spacing" textLength="242.9492" x="166" y="278.3857">sourceEntities: ?PageableInterface</text><line style="stroke:#E7E7E7;stroke-width:0.5;" x1="161" x2="413.9492" y1="285.6875" y2="285.6875"/></g><!--class Coordinates--><g id="elem_Coordinates"><rect codeLine="50" fill="#313139" height="96.8906" id="Coordinates" rx="2.5" ry="2.5" style="stroke:#E7E7E7;stroke-width:0.5;" width="187.4717" x="16" y="386"/><ellipse cx="63.3423" cy="402" fill="#352866" rx="11" ry="11" style="stroke:#E7E7E7;stroke-width:1.0;"/><path d="M59.2642,397.7656 L59.2642,395.6094 L66.6548,395.6094 L66.6548,397.7656 L64.186,397.7656 L64.186,405.8438 L66.6548,405.8438 L66.6548,408 L59.2642,408 L59.2642,405.8438 L61.7329,405.8438 L61.7329,397.7656 L59.2642,397.7656 Z " fill="#FFFFFF"/><text fill="#FFFFFF" font-family="sans-serif" font-size="14" font-style="italic" lengthAdjust="spacing" textLength="84.2871" x="83.8423" y="406.8467">Coordinates</text><line style="stroke:#E7E7E7;stroke-width:0.5;" x1="17" x2="202.4717" y1="418" y2="418"/><text fill="#FFFFFF" font-family="sans-serif" font-size="14" lengthAdjust="spacing" textLength="152.25" x="22" y="434.9951">summaryClass: string</text><text fill="#FFFFFF" font-family="sans-serif" font-size="14" lengthAdjust="spacing" textLength="157.6299" x="22" y="451.292">condition: ?Expression</text><text fill="#FFFFFF" font-family="sans-serif" font-size="14" lengthAdjust="spacing" textLength="175.4717" x="22" y="467.5889">dimensionality: &lt;string&gt;</text><line style="stroke:#E7E7E7;stroke-width:0.5;" x1="17" x2="202.4717" y1="474.8906" y2="474.8906"/></g><!--class Measures--><g id="elem_Measures"><rect codeLine="58" fill="#313139" height="48" id="Measures" rx="2.5" ry="2.5" style="stroke:#E7E7E7;stroke-width:0.5;" width="99.1016" x="238" y="410.5"/><ellipse cx="253" cy="426.5" fill="#352866" rx="11" ry="11" style="stroke:#E7E7E7;stroke-width:1.0;"/><path d="M248.9219,422.2656 L248.9219,420.1094 L256.3125,420.1094 L256.3125,422.2656 L253.8438,422.2656 L253.8438,430.3438 L256.3125,430.3438 L256.3125,432.5 L248.9219,432.5 L248.9219,430.3438 L251.3906,430.3438 L251.3906,422.2656 L248.9219,422.2656 Z " fill="#FFFFFF"/><text fill="#FFFFFF" font-family="sans-serif" font-size="14" font-style="italic" lengthAdjust="spacing" textLength="67.1016" x="267" y="431.3467">Measures</text><line style="stroke:#E7E7E7;stroke-width:0.5;" x1="239" x2="336.1016" y1="442.5" y2="442.5"/><line style="stroke:#E7E7E7;stroke-width:0.5;" x1="239" x2="336.1016" y1="450.5" y2="450.5"/></g><!--class Measure--><g id="elem_Measure"><rect codeLine="42" fill="#313139" height="129.4844" id="Measure" rx="2.5" ry="2.5" style="stroke:#E7E7E7;stroke-width:0.5;" width="204.6846" x="268" y="604"/><ellipse cx="336.1885" cy="620" fill="#352866" rx="11" ry="11" style="stroke:#E7E7E7;stroke-width:1.0;"/><path d="M332.1104,615.7656 L332.1104,613.6094 L339.501,613.6094 L339.501,615.7656 L337.0322,615.7656 L337.0322,623.8438 L339.501,623.8438 L339.501,626 L332.1104,626 L332.1104,623.8438 L334.5791,623.8438 L334.5791,615.7656 L332.1104,615.7656 Z " fill="#FFFFFF"/><text fill="#FFFFFF" font-family="sans-serif" font-size="14" font-style="italic" lengthAdjust="spacing" textLength="59.8076" x="356.6885" y="624.8467">Measure</text><line style="stroke:#E7E7E7;stroke-width:0.5;" x1="269" x2="471.6846" y1="636" y2="636"/><text fill="#FFFFFF" font-family="sans-serif" font-size="14" lengthAdjust="spacing" textLength="89.0586" x="274" y="652.9951">name: string</text><text fill="#FFFFFF" font-family="sans-serif" font-size="14" lengthAdjust="spacing" textLength="192.6846" x="274" y="669.292">label: TranslatableInterface</text><text fill="#FFFFFF" font-family="sans-serif" font-size="14" lengthAdjust="spacing" textLength="90.7197" x="274" y="685.5889">value: mixed</text><text fill="#FFFFFF" font-family="sans-serif" font-size="14" lengthAdjust="spacing" textLength="117.7969" x="274" y="701.8857">rawValue: mixed</text><text fill="#FFFFFF" font-family="sans-serif" font-size="14" lengthAdjust="spacing" textLength="72.2217" x="274" y="718.1826">unit: ?Unit</text><line style="stroke:#E7E7E7;stroke-width:0.5;" x1="269" x2="471.6846" y1="725.4844" y2="725.4844"/></g><!--class Dimension--><g id="elem_Dimension"><rect codeLine="34" fill="#313139" height="129.4844" id="Dimension" rx="2.5" ry="2.5" style="stroke:#E7E7E7;stroke-width:0.5;" width="204.6846" x="7" y="604"/><ellipse cx="67.8843" cy="620" fill="#352866" rx="11" ry="11" style="stroke:#E7E7E7;stroke-width:1.0;"/><path d="M63.8062,615.7656 L63.8062,613.6094 L71.1968,613.6094 L71.1968,615.7656 L68.728,615.7656 L68.728,623.8438 L71.1968,623.8438 L71.1968,626 L63.8062,626 L63.8062,623.8438 L66.2749,623.8438 L66.2749,615.7656 L63.8062,615.7656 Z " fill="#FFFFFF"/><text fill="#FFFFFF" font-family="sans-serif" font-size="14" font-style="italic" lengthAdjust="spacing" textLength="74.416" x="88.3843" y="624.8467">Dimension</text><line style="stroke:#E7E7E7;stroke-width:0.5;" x1="8" x2="210.6846" y1="636" y2="636"/><text fill="#FFFFFF" font-family="sans-serif" font-size="14" lengthAdjust="spacing" textLength="89.0586" x="13" y="652.9951">name: string</text><text fill="#FFFFFF" font-family="sans-serif" font-size="14" lengthAdjust="spacing" textLength="192.6846" x="13" y="669.292">label: TranslatableInterface</text><text fill="#FFFFFF" font-family="sans-serif" font-size="14" lengthAdjust="spacing" textLength="111.624" x="13" y="685.5889">member: mixed</text><text fill="#FFFFFF" font-family="sans-serif" font-size="14" lengthAdjust="spacing" textLength="135.8506" x="13" y="701.8857">rawMember: mixed</text><text fill="#FFFFFF" font-family="sans-serif" font-size="14" lengthAdjust="spacing" textLength="159.7764" x="13" y="718.1826">displayMember: mixed</text><line style="stroke:#E7E7E7;stroke-width:0.5;" x1="8" x2="210.6846" y1="725.4844" y2="725.4844"/></g><!--reverse link Result to CubeCell--><g id="link_Result_CubeCell"><path codeLine="7" d="M560.5,100.26 C560.5,117.68 560.5,126.86 560.5,147.69 " fill="none" id="Result-backto-CubeCell" style="stroke:#E7E7E7;stroke-width:1.0;"/><polygon fill="#E7E7E7" points="560.5,88.26,556.5,94.26,560.5,100.26,564.5,94.26,560.5,88.26" style="stroke:#E7E7E7;stroke-width:1.0;"/></g><!--reverse link Cell to Coordinates--><g id="link_Cell_Coordinates"><path codeLine="16" d="M228.6517,302.6336 C202.1417,331.7536 178.12,358.13 152.8,385.95 " fill="none" id="Cell-backto-Coordinates" style="stroke:#E7E7E7;stroke-width:1.0;"/><polygon fill="#E7E7E7" points="236.73,293.76,229.733,295.504,228.6517,302.6336,235.6487,300.8896,236.73,293.76" style="stroke:#E7E7E7;stroke-width:1.0;"/></g><!--reverse link Cell to Measures--><g id="link_Cell_Measures"><path codeLine="17" d="M287.5,305.76 C287.5,344.36 287.5,381.74 287.5,410.28 " fill="none" id="Cell-backto-Measures" style="stroke:#E7E7E7;stroke-width:1.0;"/><polygon fill="#E7E7E7" points="287.5,293.76,283.5,299.76,287.5,305.76,291.5,299.76,287.5,293.76" style="stroke:#E7E7E7;stroke-width:1.0;"/></g><!--reverse link Cell to Measure--><g id="link_Cell_Measure"><path codeLine="18" d="M323.8977,304.2476 C337.4577,331.2976 346.66,354.09 354.5,386 C372.49,459.21 374.62,546.2 373.47,603.91 " fill="none" id="Cell-backto-Measure" style="stroke:#E7E7E7;stroke-width:1.0;"/><polygon fill="#E7E7E7" points="318.52,293.52,317.633,300.6763,323.8977,304.2476,324.7847,297.0912,318.52,293.52" style="stroke:#E7E7E7;stroke-width:1.0;"/></g><!--reverse link Cell to CubeCell--><g id="link_Cell_CubeCell"><path codeLine="31" d="M433.2,237 C444.74,237 438.28,237 449.82,237 " fill="none" id="Cell-backto-CubeCell" style="stroke:#E7E7E7;stroke-width:1.0;"/><polygon fill="none" points="415.2,237,433.2,243,433.2,231,415.2,237" style="stroke:#E7E7E7;stroke-width:1.0;"/></g><!--reverse link CubeCell to CubeCell--><g id="link_CubeCell_CubeCell"><path codeLine="32" d="M682.9676,206.0199 C703.3976,210.1899 706,218.92 706,237 C706,255.08 691.64,266.21 671.21,270.38 " fill="none" id="CubeCell-backto-CubeCell" style="stroke:#E7E7E7;stroke-width:1.0;"/><polygon fill="none" points="671.21,203.62,676.2888,208.7391,682.9676,206.0199,677.8887,200.9007,671.21,203.62" style="stroke:#E7E7E7;stroke-width:1.0;"/></g><!--reverse link Coordinates to Dimension--><g id="link_Coordinates_Dimension"><path codeLine="56" d="M109.5,495.01 C109.5,529.87 109.5,565.6 109.5,603.78 " fill="none" id="Coordinates-backto-Dimension" style="stroke:#E7E7E7;stroke-width:1.0;"/><polygon fill="#E7E7E7" points="109.5,483.01,105.5,489.01,109.5,495.01,113.5,489.01,109.5,483.01" style="stroke:#E7E7E7;stroke-width:1.0;"/></g><!--reverse link Measures to Measure--><g id="link_Measures_Measure"><path codeLine="61" d="M299.8041,469.888 C311.8241,503.468 330.52,555.74 347.77,603.97 " fill="none" id="Measures-backto-Measure" style="stroke:#E7E7E7;stroke-width:1.0;"/><polygon fill="#E7E7E7" points="295.76,458.59,294.0161,465.587,299.8041,469.888,301.5481,462.891,295.76,458.59" style="stroke:#E7E7E7;stroke-width:1.0;"/></g><!--SRC=[dLJVRzf037w_l-8UOHeLxH3gecfC2smQAnfg2-zEOj29Yo-w7nIqzN_VNPA613PLMXu8Pv_jpzzdn-m45Q0XbohTOSOJI7TRhHnbiP9ASwk1ZB-0P1aJP55l84N-WCP9otynxX_ZyXpqCPPWJCIDrOAsfIDr2KOyzhynIibU6AlZtWq69tChRJZNILEbT2O8BFgSyUbGEdC4utJmBEf_RNDZhT0ffrESaHLMX8Z94hO8YSJlhsK3iB9o2QjLgZ4sLSuj7V1rGs-n0WKUMgm44paf8vueLHsrad9LzAgO_jdTJ0iff-gPBlqL2qQA56ldUvwB0sRdEJQ2ieiRaswPa6GoEnI-RICKzRj2betU_Mx9sBIl_Y7kLEH88LLD446E7M8a9EXfU0eZ9y5sDQhqpHFKKOMuOWgU5nV6J9X2mh7hU6b3gTNxRo1xa0xFSApFROw4zQok_AjRlJLYRswGeipFhIAVwAH5tMLD9qXXZn6_gy8-bUgqAlXf7Pou_miB0OIFQKvbG3FVdv4onzXI0jdLufxlKPSQNb_T36z6L-FU8rW-Tv8FntpuCReUHHzk-Uefvi7TPxrlo_jw1OCk7cBYGZzzDeSzy0VdzpAm_xD0caz_l1huZFP2Ayh3TsU-NfmkZ4U3ByBoHzGU2Lyls1Gt4BufCqgLxtaR-UfV1xVi7cZh_Af77CaJulDgprBOj3y0]--></g></svg>