<svg xmlns="http://www.w3.org/2000/svg" xmlns:xlink="http://www.w3.org/1999/xlink" contentStyleType="text/css" height="697px" preserveAspectRatio="none" style="width:479px;height:697px;" version="1.1" viewBox="0 0 479 697" width="479px" zoomAndPan="magnify"><defs/><g><!--class CubeCell--><g id="elem_CubeCell"><rect codeLine="2" fill="#313139" height="276.1563" id="CubeCell" rx="2.5" ry="2.5" style="stroke:#E7E7E7;stroke-width:0.5;" width="274.6572" x="150" y="7"/><ellipse cx="251.9204" cy="23" fill="#352866" rx="11" ry="11" style="stroke:#E7E7E7;stroke-width:1.0;"/><path d="M247.8423,18.7656 L247.8423,16.6094 L255.2329,16.6094 L255.2329,18.7656 L252.7642,18.7656 L252.7642,26.8438 L255.2329,26.8438 L255.2329,29 L247.8423,29 L247.8423,26.8438 L250.311,26.8438 L250.311,18.7656 L247.8423,18.7656 Z " fill="#FFFFFF"/><text fill="#FFFFFF" font-family="sans-serif" font-size="14" font-style="italic" lengthAdjust="spacing" textLength="62.3164" x="272.4204" y="27.8467">CubeCell</text><line style="stroke:#E7E7E7;stroke-width:0.5;" x1="151" x2="423.6572" y1="39" y2="39"/><text fill="#FFFFFF" font-family="sans-serif" font-size="14" lengthAdjust="spacing" textLength="152.25" x="156" y="55.9951">summaryClass: string</text><text fill="#FFFFFF" font-family="sans-serif" font-size="14" lengthAdjust="spacing" textLength="262.6572" x="156" y="72.292">summaryLabel: TranslatableInterface</text><text fill="#FFFFFF" font-family="sans-serif" font-size="14" lengthAdjust="spacing" textLength="175.6631" x="156" y="88.5889">coordinates: Coordinates</text><text fill="#FFFFFF" font-family="sans-serif" font-size="14" lengthAdjust="spacing" textLength="144.9287" x="156" y="104.8857">measures: Measures</text><text fill="#FFFFFF" font-family="sans-serif" font-size="14" lengthAdjust="spacing" textLength="130.3408" x="156" y="121.1826">measure: Measure</text><text fill="#FFFFFF" font-family="sans-serif" font-size="14" lengthAdjust="spacing" textLength="242.9492" x="156" y="137.4795">sourceEntities: ?PageableInterface</text><text fill="#FFFFFF" font-family="sans-serif" font-size="14" lengthAdjust="spacing" textLength="105.8477" x="156" y="153.7764">apex: CubeCell</text><text fill="#FFFFFF" font-family="sans-serif" font-size="14" lengthAdjust="spacing" textLength="64.5996" x="156" y="170.0732">null: bool</text><line style="stroke:#E7E7E7;stroke-width:0.5;" x1="151" x2="423.6572" y1="177.375" y2="177.375"/><text fill="#FFFFFF" font-family="sans-serif" font-size="14" lengthAdjust="spacing" textLength="138.0859" x="156" y="194.3701">pivot(list): CubeCell</text><text fill="#FFFFFF" font-family="sans-serif" font-size="14" lengthAdjust="spacing" textLength="189.1094" x="156" y="210.667">rollUp(string|list): CubeCell</text><text fill="#FFFFFF" font-family="sans-serif" font-size="14" lengthAdjust="spacing" textLength="221.1494" x="156" y="226.9639">drillDown(string|list): CubeCells</text><text fill="#FFFFFF" font-family="sans-serif" font-size="14" lengthAdjust="spacing" textLength="206.1924" x="156" y="243.2607">slice(string, mixed): CubeCell</text><text fill="#FFFFFF" font-family="sans-serif" font-size="14" lengthAdjust="spacing" textLength="208.8174" x="156" y="259.5576">find(string, mixed): ?CubeCell</text><text fill="#FFFFFF" font-family="sans-serif" font-size="14" lengthAdjust="spacing" textLength="195.2275" x="156" y="275.8545">dice(?Expression): CubeCell</text></g><!--class Coordinates--><g id="elem_Coordinates"><rect codeLine="40" fill="#313139" height="96.8906" id="Coordinates" rx="2.5" ry="2.5" style="stroke:#E7E7E7;stroke-width:0.5;" width="187.4717" x="16" y="343"/><ellipse cx="63.3423" cy="359" fill="#352866" rx="11" ry="11" style="stroke:#E7E7E7;stroke-width:1.0;"/><path d="M59.2642,354.7656 L59.2642,352.6094 L66.6548,352.6094 L66.6548,354.7656 L64.186,354.7656 L64.186,362.8438 L66.6548,362.8438 L66.6548,365 L59.2642,365 L59.2642,362.8438 L61.7329,362.8438 L61.7329,354.7656 L59.2642,354.7656 Z " fill="#FFFFFF"/><text fill="#FFFFFF" font-family="sans-serif" font-size="14" font-style="italic" lengthAdjust="spacing" textLength="84.2871" x="83.8423" y="363.8467">Coordinates</text><line style="stroke:#E7E7E7;stroke-width:0.5;" x1="17" x2="202.4717" y1="375" y2="375"/><text fill="#FFFFFF" font-family="sans-serif" font-size="14" lengthAdjust="spacing" textLength="152.25" x="22" y="391.9951">summaryClass: string</text><text fill="#FFFFFF" font-family="sans-serif" font-size="14" lengthAdjust="spacing" textLength="159.3115" x="22" y="408.292">predicate: ?Expression</text><text fill="#FFFFFF" font-family="sans-serif" font-size="14" lengthAdjust="spacing" textLength="175.4717" x="22" y="424.5889">dimensionality: &lt;string&gt;</text><line style="stroke:#E7E7E7;stroke-width:0.5;" x1="17" x2="202.4717" y1="431.8906" y2="431.8906"/></g><!--class Measures--><g id="elem_Measures"><rect codeLine="48" fill="#313139" height="48" id="Measures" rx="2.5" ry="2.5" style="stroke:#E7E7E7;stroke-width:0.5;" width="99.1016" x="238" y="367.5"/><ellipse cx="253" cy="383.5" fill="#352866" rx="11" ry="11" style="stroke:#E7E7E7;stroke-width:1.0;"/><path d="M248.9219,379.2656 L248.9219,377.1094 L256.3125,377.1094 L256.3125,379.2656 L253.8438,379.2656 L253.8438,387.3438 L256.3125,387.3438 L256.3125,389.5 L248.9219,389.5 L248.9219,387.3438 L251.3906,387.3438 L251.3906,379.2656 L248.9219,379.2656 Z " fill="#FFFFFF"/><text fill="#FFFFFF" font-family="sans-serif" font-size="14" font-style="italic" lengthAdjust="spacing" textLength="67.1016" x="267" y="388.3467">Measures</text><line style="stroke:#E7E7E7;stroke-width:0.5;" x1="239" x2="336.1016" y1="399.5" y2="399.5"/><line style="stroke:#E7E7E7;stroke-width:0.5;" x1="239" x2="336.1016" y1="407.5" y2="407.5"/></g><!--class Measure--><g id="elem_Measure"><rect codeLine="32" fill="#313139" height="129.4844" id="Measure" rx="2.5" ry="2.5" style="stroke:#E7E7E7;stroke-width:0.5;" width="204.6846" x="268" y="561"/><ellipse cx="336.1885" cy="577" fill="#352866" rx="11" ry="11" style="stroke:#E7E7E7;stroke-width:1.0;"/><path d="M332.1104,572.7656 L332.1104,570.6094 L339.501,570.6094 L339.501,572.7656 L337.0322,572.7656 L337.0322,580.8438 L339.501,580.8438 L339.501,583 L332.1104,583 L332.1104,580.8438 L334.5791,580.8438 L334.5791,572.7656 L332.1104,572.7656 Z " fill="#FFFFFF"/><text fill="#FFFFFF" font-family="sans-serif" font-size="14" font-style="italic" lengthAdjust="spacing" textLength="59.8076" x="356.6885" y="581.8467">Measure</text><line style="stroke:#E7E7E7;stroke-width:0.5;" x1="269" x2="471.6846" y1="593" y2="593"/><text fill="#FFFFFF" font-family="sans-serif" font-size="14" lengthAdjust="spacing" textLength="89.0586" x="274" y="609.9951">name: string</text><text fill="#FFFFFF" font-family="sans-serif" font-size="14" lengthAdjust="spacing" textLength="192.6846" x="274" y="626.292">label: TranslatableInterface</text><text fill="#FFFFFF" font-family="sans-serif" font-size="14" lengthAdjust="spacing" textLength="90.7197" x="274" y="642.5889">value: mixed</text><text fill="#FFFFFF" font-family="sans-serif" font-size="14" lengthAdjust="spacing" textLength="117.7969" x="274" y="658.8857">rawValue: mixed</text><text fill="#FFFFFF" font-family="sans-serif" font-size="14" lengthAdjust="spacing" textLength="72.2217" x="274" y="675.1826">unit: ?Unit</text><line style="stroke:#E7E7E7;stroke-width:0.5;" x1="269" x2="471.6846" y1="682.4844" y2="682.4844"/></g><!--class Dimension--><g id="elem_Dimension"><rect codeLine="24" fill="#313139" height="129.4844" id="Dimension" rx="2.5" ry="2.5" style="stroke:#E7E7E7;stroke-width:0.5;" width="204.6846" x="7" y="561"/><ellipse cx="67.8843" cy="577" fill="#352866" rx="11" ry="11" style="stroke:#E7E7E7;stroke-width:1.0;"/><path d="M63.8062,572.7656 L63.8062,570.6094 L71.1968,570.6094 L71.1968,572.7656 L68.728,572.7656 L68.728,580.8438 L71.1968,580.8438 L71.1968,583 L63.8062,583 L63.8062,580.8438 L66.2749,580.8438 L66.2749,572.7656 L63.8062,572.7656 Z " fill="#FFFFFF"/><text fill="#FFFFFF" font-family="sans-serif" font-size="14" font-style="italic" lengthAdjust="spacing" textLength="74.416" x="88.3843" y="581.8467">Dimension</text><line style="stroke:#E7E7E7;stroke-width:0.5;" x1="8" x2="210.6846" y1="593" y2="593"/><text fill="#FFFFFF" font-family="sans-serif" font-size="14" lengthAdjust="spacing" textLength="89.0586" x="13" y="609.9951">name: string</text><text fill="#FFFFFF" font-family="sans-serif" font-size="14" lengthAdjust="spacing" textLength="192.6846" x="13" y="626.292">label: TranslatableInterface</text><text fill="#FFFFFF" font-family="sans-serif" font-size="14" lengthAdjust="spacing" textLength="111.624" x="13" y="642.5889">member: mixed</text><text fill="#FFFFFF" font-family="sans-serif" font-size="14" lengthAdjust="spacing" textLength="135.8506" x="13" y="658.8857">rawMember: mixed</text><text fill="#FFFFFF" font-family="sans-serif" font-size="14" lengthAdjust="spacing" textLength="159.7764" x="13" y="675.1826">displayMember: mixed</text><line style="stroke:#E7E7E7;stroke-width:0.5;" x1="8" x2="210.6846" y1="682.4844" y2="682.4844"/></g><!--reverse link CubeCell to Coordinates--><g id="link_CubeCell_Coordinates"><path codeLine="19" d="M180.5068,292.9611 C164.9768,314.2911 156.96,325.31 144.26,342.75 " fill="none" id="CubeCell-backto-Coordinates" style="stroke:#E7E7E7;stroke-width:1.0;"/><polygon fill="#E7E7E7" points="187.57,283.26,180.8047,285.7561,180.5068,292.9611,187.2721,290.4649,187.57,283.26" style="stroke:#E7E7E7;stroke-width:1.0;"/></g><!--reverse link CubeCell to Measures--><g id="link_CubeCell_Measures"><path codeLine="20" d="M287.5,295.26 C287.5,327.91 287.5,347.12 287.5,367.36 " fill="none" id="CubeCell-backto-Measures" style="stroke:#E7E7E7;stroke-width:1.0;"/><polygon fill="#E7E7E7" points="287.5,283.26,283.5,289.26,287.5,295.26,291.5,289.26,287.5,283.26" style="stroke:#E7E7E7;stroke-width:1.0;"/></g><!--reverse link CubeCell to Measure--><g id="link_CubeCell_Measure"><path codeLine="21" d="M342.8251,294.5118 C348.8051,314.4018 350.67,323.32 354.5,343 C368.86,416.75 371.75,503.27 371.77,560.72 " fill="none" id="CubeCell-backto-Measure" style="stroke:#E7E7E7;stroke-width:1.0;"/><polygon fill="#E7E7E7" points="339.37,283.02,337.2669,289.9176,342.8251,294.5118,344.9281,287.6142,339.37,283.02" style="stroke:#E7E7E7;stroke-width:1.0;"/></g><!--reverse link CubeCell to CubeCell--><g id="link_CubeCell_CubeCell"><path codeLine="22" d="M436.6571,106.6186 C457.3971,113.0786 460,123.5 460,145 C460,166.5 445.94,180.49 425.2,186.95 " fill="none" id="CubeCell-backto-CubeCell" style="stroke:#E7E7E7;stroke-width:1.0;"/><polygon fill="none" points="425.2,103.05,429.739,108.6533,436.6571,106.6186,432.1181,101.0153,425.2,103.05" style="stroke:#E7E7E7;stroke-width:1.0;"/></g><!--reverse link Coordinates to Dimension--><g id="link_Coordinates_Dimension"><path codeLine="46" d="M109.5,452.01 C109.5,486.87 109.5,522.6 109.5,560.78 " fill="none" id="Coordinates-backto-Dimension" style="stroke:#E7E7E7;stroke-width:1.0;"/><polygon fill="#E7E7E7" points="109.5,440.01,105.5,446.01,109.5,452.01,113.5,446.01,109.5,440.01" style="stroke:#E7E7E7;stroke-width:1.0;"/></g><!--reverse link Measures to Measure--><g id="link_Measures_Measure"><path codeLine="51" d="M299.8041,426.888 C311.8241,460.468 330.52,512.74 347.77,560.97 " fill="none" id="Measures-backto-Measure" style="stroke:#E7E7E7;stroke-width:1.0;"/><polygon fill="#E7E7E7" points="295.76,415.59,294.0161,422.587,299.8041,426.888,301.5481,419.891,295.76,415.59" style="stroke:#E7E7E7;stroke-width:1.0;"/></g><!--SRC=[dLJRRjf047tVhzX7KfM8f0YbLbMg6bgLWegQmFlO7j2AzQwr5m9gy- -PjGtOG1MfVh5tvipjd1tRZL056CYbJZUOyGJIpTfehx9OIssuCw0i0L0vneHoQ5QG8ezzWZ5AoVymJe_rUGvc7qkmDkBM6Q7MJSSK4fGHVmh993X89Fuuv2fngTOc4meSKdnyEfJE7C5w4pop-gjfFbghWjgR5CVA2IT2n70EQxoi1mNkekCKfKbvIIqcMbV7GcorwqXXtSqPq6Wf5qMdclBlDKHcX9GZ_Qp-0QhwjrAaM2FUyrpiC3jFj18gkq0CsxL2ak5uLn0jLcZLJF72s56eTzrkYzYMuyZhDUl9g4EEG_B6RHY975KeNby71Jcshe5yI_ySymHDLCrOiGpFimjZ9cmXOTzsl3HRgNl-xqQs83sUzR4yjtab7Ecme5UxUeFWjpQ3z2Bf24c9JkhLKzPqWXHk7_5FLTZdKiz61TAeU-B-2WkX2Oevdig0Wwhi2whCCpQNeDnYDkLRDAM6TxVtlVl-xQ3p28vFlEIz0UzzZExwqOS7ldYAUN3ViCxt-RHUjw0BjPXu5ouWcy0M-6zFEnZO_rMWcen-7WnyhBR2Q9M7FyfaEJi11ltkL-7u8nhgX2zdR8GhyD9HHAffvdL4rRzr7zWKrDhJMaSS5H52UGsn5FRt5G00]--></g></svg>