<svg xmlns="http://www.w3.org/2000/svg" xmlns:xlink="http://www.w3.org/1999/xlink" contentStyleType="text/css" height="576px" preserveAspectRatio="none" style="width:894px;height:576px;" version="1.1" viewBox="0 0 894 576" width="894px" zoomAndPan="magnify"><defs/><g><!--class TimeGroup--><g id="elem_TimeGroup"><rect codeLine="4" fill="#F1F1F1" height="80.5938" id="TimeGroup" rx="2.5" ry="2.5" style="stroke:#181818;stroke-width:0.5;" width="109.6221" x="396" y="7"/><ellipse cx="411" cy="23" fill="#ADD1B2" rx="11" ry="11" style="stroke:#181818;stroke-width:1.0;"/><path d="M413.9688,28.6406 Q413.3906,28.9375 412.75,29.0781 Q412.1094,29.2344 411.4063,29.2344 Q408.9063,29.2344 407.5781,27.5938 Q406.2656,25.9375 406.2656,22.8125 Q406.2656,19.6875 407.5781,18.0313 Q408.9063,16.375 411.4063,16.375 Q412.1094,16.375 412.75,16.5313 Q413.4063,16.6875 413.9688,16.9844 L413.9688,19.7031 Q413.3438,19.125 412.75,18.8594 Q412.1563,18.5781 411.5313,18.5781 Q410.1875,18.5781 409.5,19.6563 Q408.8125,20.7188 408.8125,22.8125 Q408.8125,24.9063 409.5,25.9844 Q410.1875,27.0469 411.5313,27.0469 Q412.1563,27.0469 412.75,26.7813 Q413.3438,26.5 413.9688,25.9219 L413.9688,28.6406 Z " fill="#000000"/><text fill="#000000" font-family="sans-serif" font-size="14" lengthAdjust="spacing" textLength="77.6221" x="425" y="27.8467">TimeGroup</text><line style="stroke:#181818;stroke-width:0.5;" x1="397" x2="504.6221" y1="39" y2="39"/><text fill="#000000" font-family="sans-serif" font-size="14" lengthAdjust="spacing" textLength="27.6514" x="402" y="55.9951">civil</text><text fill="#000000" font-family="sans-serif" font-size="14" lengthAdjust="spacing" textLength="58.9258" x="402" y="72.292">isoWeek</text><line style="stroke:#181818;stroke-width:0.5;" x1="397" x2="504.6221" y1="79.5938" y2="79.5938"/></g><!--class GregorianDateWithHour--><g id="elem_GregorianDateWithHour"><rect codeLine="25" fill="#F1F1F1" height="64.2969" id="GregorianDateWithHour" rx="2.5" ry="2.5" style="stroke:#181818;stroke-width:0.5;" width="201.0459" x="236" y="151"/><ellipse cx="251" cy="167" fill="#ADD1B2" rx="11" ry="11" style="stroke:#181818;stroke-width:1.0;"/><path d="M253.9688,172.6406 Q253.3906,172.9375 252.75,173.0781 Q252.1094,173.2344 251.4063,173.2344 Q248.9063,173.2344 247.5781,171.5938 Q246.2656,169.9375 246.2656,166.8125 Q246.2656,163.6875 247.5781,162.0313 Q248.9063,160.375 251.4063,160.375 Q252.1094,160.375 252.75,160.5313 Q253.4063,160.6875 253.9688,160.9844 L253.9688,163.7031 Q253.3438,163.125 252.75,162.8594 Q252.1563,162.5781 251.5313,162.5781 Q250.1875,162.5781 249.5,163.6563 Q248.8125,164.7188 248.8125,166.8125 Q248.8125,168.9063 249.5,169.9844 Q250.1875,171.0469 251.5313,171.0469 Q252.1563,171.0469 252.75,170.7813 Q253.3438,170.5 253.9688,169.9219 L253.9688,172.6406 Z " fill="#000000"/><text fill="#000000" font-family="sans-serif" font-size="14" lengthAdjust="spacing" textLength="169.0459" x="265" y="171.8467">GregorianDateWithHour</text><line style="stroke:#181818;stroke-width:0.5;" x1="237" x2="436.0459" y1="183" y2="183"/><text fill="#000000" font-family="sans-serif" font-size="14" lengthAdjust="spacing" textLength="32.0674" x="242" y="199.9951">hour</text><line style="stroke:#181818;stroke-width:0.5;" x1="237" x2="436.0459" y1="207.2969" y2="207.2969"/></g><!--class IsoWeekDateWithHour--><g id="elem_IsoWeekDateWithHour"><rect codeLine="41" fill="#F1F1F1" height="64.2969" id="IsoWeekDateWithHour" rx="2.5" ry="2.5" style="stroke:#181818;stroke-width:0.5;" width="190.4434" x="472.5" y="151"/><ellipse cx="487.5" cy="167" fill="#ADD1B2" rx="11" ry="11" style="stroke:#181818;stroke-width:1.0;"/><path d="M490.4688,172.6406 Q489.8906,172.9375 489.25,173.0781 Q488.6094,173.2344 487.9063,173.2344 Q485.4063,173.2344 484.0781,171.5938 Q482.7656,169.9375 482.7656,166.8125 Q482.7656,163.6875 484.0781,162.0313 Q485.4063,160.375 487.9063,160.375 Q488.6094,160.375 489.25,160.5313 Q489.9063,160.6875 490.4688,160.9844 L490.4688,163.7031 Q489.8438,163.125 489.25,162.8594 Q488.6563,162.5781 488.0313,162.5781 Q486.6875,162.5781 486,163.6563 Q485.3125,164.7188 485.3125,166.8125 Q485.3125,168.9063 486,169.9844 Q486.6875,171.0469 488.0313,171.0469 Q488.6563,171.0469 489.25,170.7813 Q489.8438,170.5 490.4688,169.9219 L490.4688,172.6406 Z " fill="#000000"/><text fill="#000000" font-family="sans-serif" font-size="14" lengthAdjust="spacing" textLength="158.4434" x="501.5" y="171.8467">IsoWeekDateWithHour</text><line style="stroke:#181818;stroke-width:0.5;" x1="473.5" x2="661.9434" y1="183" y2="183"/><text fill="#000000" font-family="sans-serif" font-size="14" lengthAdjust="spacing" textLength="32.0674" x="478.5" y="199.9951">hour</text><line style="stroke:#181818;stroke-width:0.5;" x1="473.5" x2="661.9434" y1="207.2969" y2="207.2969"/></g><!--class GregorianDate--><g id="elem_GregorianDate"><rect codeLine="14" fill="#F1F1F1" height="113.1875" id="GregorianDate" rx="2.5" ry="2.5" style="stroke:#181818;stroke-width:0.5;" width="135.2295" x="197" y="279"/><ellipse cx="212" cy="295" fill="#ADD1B2" rx="11" ry="11" style="stroke:#181818;stroke-width:1.0;"/><path d="M214.9688,300.6406 Q214.3906,300.9375 213.75,301.0781 Q213.1094,301.2344 212.4063,301.2344 Q209.9063,301.2344 208.5781,299.5938 Q207.2656,297.9375 207.2656,294.8125 Q207.2656,291.6875 208.5781,290.0313 Q209.9063,288.375 212.4063,288.375 Q213.1094,288.375 213.75,288.5313 Q214.4063,288.6875 214.9688,288.9844 L214.9688,291.7031 Q214.3438,291.125 213.75,290.8594 Q213.1563,290.5781 212.5313,290.5781 Q211.1875,290.5781 210.5,291.6563 Q209.8125,292.7188 209.8125,294.8125 Q209.8125,296.9063 210.5,297.9844 Q211.1875,299.0469 212.5313,299.0469 Q213.1563,299.0469 213.75,298.7813 Q214.3438,298.5 214.9688,297.9219 L214.9688,300.6406 Z " fill="#000000"/><text fill="#000000" font-family="sans-serif" font-size="14" lengthAdjust="spacing" textLength="103.2295" x="226" y="299.8467">GregorianDate</text><line style="stroke:#181818;stroke-width:0.5;" x1="198" x2="331.2295" y1="311" y2="311"/><text fill="#000000" font-family="sans-serif" font-size="14" lengthAdjust="spacing" textLength="31.2334" x="203" y="327.9951">year</text><text fill="#000000" font-family="sans-serif" font-size="14" lengthAdjust="spacing" textLength="51.9531" x="203" y="344.292">quarter</text><text fill="#000000" font-family="sans-serif" font-size="14" lengthAdjust="spacing" textLength="45.4385" x="203" y="360.5889">month</text><text fill="#000000" font-family="sans-serif" font-size="14" lengthAdjust="spacing" textLength="31.5684" x="203" y="376.8857">date</text><line style="stroke:#181818;stroke-width:0.5;" x1="198" x2="331.2295" y1="384.1875" y2="384.1875"/></g><!--class QuarterSet--><g id="elem_QuarterSet"><rect codeLine="50" fill="#F1F1F1" height="80.5938" id="QuarterSet" rx="2.5" ry="2.5" style="stroke:#181818;stroke-width:0.5;" width="111.4014" x="7" y="472"/><ellipse cx="23.0468" cy="488" fill="#ADD1B2" rx="11" ry="11" style="stroke:#181818;stroke-width:1.0;"/><path d="M26.0155,493.6406 Q25.4374,493.9375 24.7968,494.0781 Q24.1562,494.2344 23.453,494.2344 Q20.953,494.2344 19.6249,492.5938 Q18.3124,490.9375 18.3124,487.8125 Q18.3124,484.6875 19.6249,483.0313 Q20.953,481.375 23.453,481.375 Q24.1562,481.375 24.7968,481.5313 Q25.453,481.6875 26.0155,481.9844 L26.0155,484.7031 Q25.3905,484.125 24.7968,483.8594 Q24.203,483.5781 23.578,483.5781 Q22.2343,483.5781 21.5468,484.6563 Q20.8593,485.7188 20.8593,487.8125 Q20.8593,489.9063 21.5468,490.9844 Q22.2343,492.0469 23.578,492.0469 Q24.203,492.0469 24.7968,491.7813 Q25.3905,491.5 26.0155,490.9219 L26.0155,493.6406 Z " fill="#000000"/><text fill="#000000" font-family="sans-serif" font-size="14" lengthAdjust="spacing" textLength="77.0752" x="37.2794" y="492.8467">QuarterSet</text><line style="stroke:#181818;stroke-width:0.5;" x1="8" x2="117.4014" y1="504" y2="504"/><text fill="#000000" font-family="sans-serif" font-size="14" lengthAdjust="spacing" textLength="51.9531" x="13" y="520.9951">quarter</text><text fill="#000000" font-family="sans-serif" font-size="14" lengthAdjust="spacing" textLength="99.4014" x="13" y="537.292">quarterOfYear</text><line style="stroke:#181818;stroke-width:0.5;" x1="8" x2="117.4014" y1="544.5938" y2="544.5938"/></g><!--class MonthSet--><g id="elem_MonthSet"><rect codeLine="55" fill="#F1F1F1" height="80.5938" id="MonthSet" rx="2.5" ry="2.5" style="stroke:#181818;stroke-width:0.5;" width="104.8867" x="153" y="472"/><ellipse cx="170.7079" cy="488" fill="#ADD1B2" rx="11" ry="11" style="stroke:#181818;stroke-width:1.0;"/><path d="M173.6767,493.6406 Q173.0985,493.9375 172.4579,494.0781 Q171.8173,494.2344 171.1142,494.2344 Q168.6142,494.2344 167.286,492.5938 Q165.9735,490.9375 165.9735,487.8125 Q165.9735,484.6875 167.286,483.0313 Q168.6142,481.375 171.1142,481.375 Q171.8173,481.375 172.4579,481.5313 Q173.1142,481.6875 173.6767,481.9844 L173.6767,484.7031 Q173.0517,484.125 172.4579,483.8594 Q171.8642,483.5781 171.2392,483.5781 Q169.8954,483.5781 169.2079,484.6563 Q168.5204,485.7188 168.5204,487.8125 Q168.5204,489.9063 169.2079,490.9844 Q169.8954,492.0469 171.2392,492.0469 Q171.8642,492.0469 172.4579,491.7813 Q173.0517,491.5 173.6767,490.9219 L173.6767,493.6406 Z " fill="#000000"/><text fill="#000000" font-family="sans-serif" font-size="14" lengthAdjust="spacing" textLength="66.8691" x="185.3097" y="492.8467">MonthSet</text><line style="stroke:#181818;stroke-width:0.5;" x1="154" x2="256.8867" y1="504" y2="504"/><text fill="#000000" font-family="sans-serif" font-size="14" lengthAdjust="spacing" textLength="45.4385" x="159" y="520.9951">month</text><text fill="#000000" font-family="sans-serif" font-size="14" lengthAdjust="spacing" textLength="92.8867" x="159" y="537.292">monthOfYear</text><line style="stroke:#181818;stroke-width:0.5;" x1="154" x2="256.8867" y1="544.5938" y2="544.5938"/></g><!--class DateSet--><g id="elem_DateSet"><rect codeLine="65" fill="#F1F1F1" height="113.1875" id="DateSet" rx="2.5" ry="2.5" style="stroke:#181818;stroke-width:0.5;" width="97.5791" x="293.5" y="456"/><ellipse cx="312.6076" cy="472" fill="#ADD1B2" rx="11" ry="11" style="stroke:#181818;stroke-width:1.0;"/><path d="M315.5763,477.6406 Q314.9982,477.9375 314.3576,478.0781 Q313.7169,478.2344 313.0138,478.2344 Q310.5138,478.2344 309.1857,476.5938 Q307.8732,474.9375 307.8732,471.8125 Q307.8732,468.6875 309.1857,467.0313 Q310.5138,465.375 313.0138,465.375 Q313.7169,465.375 314.3576,465.5313 Q315.0138,465.6875 315.5763,465.9844 L315.5763,468.7031 Q314.9513,468.125 314.3576,467.8594 Q313.7638,467.5781 313.1388,467.5781 Q311.7951,467.5781 311.1076,468.6563 Q310.4201,469.7188 310.4201,471.8125 Q310.4201,473.9063 311.1076,474.9844 Q311.7951,476.0469 313.1388,476.0469 Q313.7638,476.0469 314.3576,475.7813 Q314.9513,475.5 315.5763,474.9219 L315.5763,477.6406 Z " fill="#000000"/><text fill="#000000" font-family="sans-serif" font-size="14" lengthAdjust="spacing" textLength="56.4512" x="327.5204" y="476.8467">DateSet</text><line style="stroke:#181818;stroke-width:0.5;" x1="294.5" x2="390.0791" y1="488" y2="488"/><text fill="#000000" font-family="sans-serif" font-size="14" lengthAdjust="spacing" textLength="31.5684" x="299.5" y="504.9951">date</text><text fill="#000000" font-family="sans-serif" font-size="14" lengthAdjust="spacing" textLength="80.876" x="299.5" y="521.292">dayOfWeek</text><text fill="#000000" font-family="sans-serif" font-size="14" lengthAdjust="spacing" textLength="85.5791" x="299.5" y="537.5889">dayOfMonth</text><text fill="#000000" font-family="sans-serif" font-size="14" lengthAdjust="spacing" textLength="73.1992" x="299.5" y="553.8857">dayOfYear</text><line style="stroke:#181818;stroke-width:0.5;" x1="294.5" x2="390.0791" y1="561.1875" y2="561.1875"/></g><!--class HourSet--><g id="elem_HourSet"><rect codeLine="78" fill="#F1F1F1" height="80.5938" id="HourSet" rx="2.5" ry="2.5" style="stroke:#181818;stroke-width:0.5;" width="88.7109" x="427" y="472"/><ellipse cx="442" cy="488" fill="#ADD1B2" rx="11" ry="11" style="stroke:#181818;stroke-width:1.0;"/><path d="M444.9688,493.6406 Q444.3906,493.9375 443.75,494.0781 Q443.1094,494.2344 442.4063,494.2344 Q439.9063,494.2344 438.5781,492.5938 Q437.2656,490.9375 437.2656,487.8125 Q437.2656,484.6875 438.5781,483.0313 Q439.9063,481.375 442.4063,481.375 Q443.1094,481.375 443.75,481.5313 Q444.4063,481.6875 444.9688,481.9844 L444.9688,484.7031 Q444.3438,484.125 443.75,483.8594 Q443.1563,483.5781 442.5313,483.5781 Q441.1875,483.5781 440.5,484.6563 Q439.8125,485.7188 439.8125,487.8125 Q439.8125,489.9063 440.5,490.9844 Q441.1875,492.0469 442.5313,492.0469 Q443.1563,492.0469 443.75,491.7813 Q444.3438,491.5 444.9688,490.9219 L444.9688,493.6406 Z " fill="#000000"/><text fill="#000000" font-family="sans-serif" font-size="14" lengthAdjust="spacing" textLength="56.7109" x="456" y="492.8467">HourSet</text><line style="stroke:#181818;stroke-width:0.5;" x1="428" x2="514.7109" y1="504" y2="504"/><text fill="#000000" font-family="sans-serif" font-size="14" lengthAdjust="spacing" textLength="32.0674" x="433" y="520.9951">hour</text><text fill="#000000" font-family="sans-serif" font-size="14" lengthAdjust="spacing" textLength="75.6602" x="433" y="537.292">hourOfDay</text><line style="stroke:#181818;stroke-width:0.5;" x1="428" x2="514.7109" y1="544.5938" y2="544.5938"/></g><!--class IsoWeekDate--><g id="elem_IsoWeekDate"><rect codeLine="32" fill="#F1F1F1" height="96.8906" id="IsoWeekDate" rx="2.5" ry="2.5" style="stroke:#181818;stroke-width:0.5;" width="124.627" x="565.5" y="287.5"/><ellipse cx="580.5" cy="303.5" fill="#ADD1B2" rx="11" ry="11" style="stroke:#181818;stroke-width:1.0;"/><path d="M583.4688,309.1406 Q582.8906,309.4375 582.25,309.5781 Q581.6094,309.7344 580.9063,309.7344 Q578.4063,309.7344 577.0781,308.0938 Q575.7656,306.4375 575.7656,303.3125 Q575.7656,300.1875 577.0781,298.5313 Q578.4063,296.875 580.9063,296.875 Q581.6094,296.875 582.25,297.0313 Q582.9063,297.1875 583.4688,297.4844 L583.4688,300.2031 Q582.8438,299.625 582.25,299.3594 Q581.6563,299.0781 581.0313,299.0781 Q579.6875,299.0781 579,300.1563 Q578.3125,301.2188 578.3125,303.3125 Q578.3125,305.4063 579,306.4844 Q579.6875,307.5469 581.0313,307.5469 Q581.6563,307.5469 582.25,307.2813 Q582.8438,307 583.4688,306.4219 L583.4688,309.1406 Z " fill="#000000"/><text fill="#000000" font-family="sans-serif" font-size="14" lengthAdjust="spacing" textLength="92.627" x="594.5" y="308.3467">IsoWeekDate</text><line style="stroke:#181818;stroke-width:0.5;" x1="566.5" x2="689.127" y1="319.5" y2="319.5"/><text fill="#000000" font-family="sans-serif" font-size="14" lengthAdjust="spacing" textLength="68.2842" x="571.5" y="336.4951">weekYear</text><text fill="#000000" font-family="sans-serif" font-size="14" lengthAdjust="spacing" textLength="36.7842" x="571.5" y="352.792">week</text><text fill="#000000" font-family="sans-serif" font-size="14" lengthAdjust="spacing" textLength="70.2461" x="571.5" y="369.0889">weekDate</text><line style="stroke:#181818;stroke-width:0.5;" x1="566.5" x2="689.127" y1="376.3906" y2="376.3906"/></g><!--class IsoWeekWeekSet--><g id="elem_IsoWeekWeekSet"><rect codeLine="60" fill="#F1F1F1" height="80.5938" id="IsoWeekWeekSet" rx="2.5" ry="2.5" style="stroke:#181818;stroke-width:0.5;" width="153.3311" x="551" y="472"/><ellipse cx="566" cy="488" fill="#ADD1B2" rx="11" ry="11" style="stroke:#181818;stroke-width:1.0;"/><path d="M568.9688,493.6406 Q568.3906,493.9375 567.75,494.0781 Q567.1094,494.2344 566.4063,494.2344 Q563.9063,494.2344 562.5781,492.5938 Q561.2656,490.9375 561.2656,487.8125 Q561.2656,484.6875 562.5781,483.0313 Q563.9063,481.375 566.4063,481.375 Q567.1094,481.375 567.75,481.5313 Q568.4063,481.6875 568.9688,481.9844 L568.9688,484.7031 Q568.3438,484.125 567.75,483.8594 Q567.1563,483.5781 566.5313,483.5781 Q565.1875,483.5781 564.5,484.6563 Q563.8125,485.7188 563.8125,487.8125 Q563.8125,489.9063 564.5,490.9844 Q565.1875,492.0469 566.5313,492.0469 Q567.1563,492.0469 567.75,491.7813 Q568.3438,491.5 568.9688,490.9219 L568.9688,493.6406 Z " fill="#000000"/><text fill="#000000" font-family="sans-serif" font-size="14" lengthAdjust="spacing" textLength="121.3311" x="580" y="492.8467">IsoWeekWeekSet</text><line style="stroke:#181818;stroke-width:0.5;" x1="552" x2="703.3311" y1="504" y2="504"/><text fill="#000000" font-family="sans-serif" font-size="14" lengthAdjust="spacing" textLength="36.7842" x="557" y="520.9951">week</text><text fill="#000000" font-family="sans-serif" font-size="14" lengthAdjust="spacing" textLength="84.2324" x="557" y="537.292">weekOfYear</text><line style="stroke:#181818;stroke-width:0.5;" x1="552" x2="703.3311" y1="544.5938" y2="544.5938"/></g><!--class IsoWeekDateSet--><g id="elem_IsoWeekDateSet"><rect codeLine="72" fill="#F1F1F1" height="96.8906" id="IsoWeekDateSet" rx="2.5" ry="2.5" style="stroke:#181818;stroke-width:0.5;" width="147.6162" x="739.5" y="464"/><ellipse cx="754.5" cy="480" fill="#ADD1B2" rx="11" ry="11" style="stroke:#181818;stroke-width:1.0;"/><path d="M757.4688,485.6406 Q756.8906,485.9375 756.25,486.0781 Q755.6094,486.2344 754.9063,486.2344 Q752.4063,486.2344 751.0781,484.5938 Q749.7656,482.9375 749.7656,479.8125 Q749.7656,476.6875 751.0781,475.0313 Q752.4063,473.375 754.9063,473.375 Q755.6094,473.375 756.25,473.5313 Q756.9063,473.6875 757.4688,473.9844 L757.4688,476.7031 Q756.8438,476.125 756.25,475.8594 Q755.6563,475.5781 755.0313,475.5781 Q753.6875,475.5781 753,476.6563 Q752.3125,477.7188 752.3125,479.8125 Q752.3125,481.9063 753,482.9844 Q753.6875,484.0469 755.0313,484.0469 Q755.6563,484.0469 756.25,483.7813 Q756.8438,483.5 757.4688,482.9219 L757.4688,485.6406 Z " fill="#000000"/><text fill="#000000" font-family="sans-serif" font-size="14" lengthAdjust="spacing" textLength="115.6162" x="768.5" y="484.8467">IsoWeekDateSet</text><line style="stroke:#181818;stroke-width:0.5;" x1="740.5" x2="886.1162" y1="496" y2="496"/><text fill="#000000" font-family="sans-serif" font-size="14" lengthAdjust="spacing" textLength="70.2461" x="745.5" y="512.9951">weekDate</text><text fill="#000000" font-family="sans-serif" font-size="14" lengthAdjust="spacing" textLength="80.876" x="745.5" y="529.292">dayOfWeek</text><text fill="#000000" font-family="sans-serif" font-size="14" lengthAdjust="spacing" textLength="112.376" x="745.5" y="545.5889">dayOfWeekYear</text><line style="stroke:#181818;stroke-width:0.5;" x1="740.5" x2="886.1162" y1="552.8906" y2="552.8906"/></g><!--reverse link TimeGroup to GregorianDateWithHour--><g id="link_TimeGroup_GregorianDateWithHour"><path codeLine="9" d="M383.5,51 C339.85,51 340.31,112.22 337.37,150.95 " fill="none" id="TimeGroup-backto-GregorianDateWithHour" style="stroke:#181818;stroke-width:1.0;"/><polygon fill="none" points="395.5,51,389.5,47,383.5,51,389.5,55,395.5,51" style="stroke:#181818;stroke-width:1.0;"/></g><!--reverse link TimeGroup to IsoWeekDateWithHour--><g id="link_TimeGroup_IsoWeekDateWithHour"><path codeLine="10" d="M518.5,67 C556.58,67 558.96,116.82 564.34,150.88 " fill="none" id="TimeGroup-backto-IsoWeekDateWithHour" style="stroke:#181818;stroke-width:1.0;"/><polygon fill="none" points="506.5,67,512.5,71,518.5,67,512.5,63,506.5,67" style="stroke:#181818;stroke-width:1.0;"/></g><!--reverse link GregorianDate to QuarterSet--><g id="link_GregorianDate_QuarterSet"><path codeLine="21" d="M184.5,339.5 C117.88,339.5 91.53,420.8 74.06,471.61 " fill="none" id="GregorianDate-backto-QuarterSet" style="stroke:#181818;stroke-width:1.0;"/><polygon fill="none" points="196.5,339.5,190.5,335.5,184.5,339.5,190.5,343.5,196.5,339.5" style="stroke:#181818;stroke-width:1.0;"/></g><!--reverse link GregorianDate to MonthSet--><g id="link_GregorianDate_MonthSet"><path codeLine="22" d="M184.5,355.5 C137.97,355.5 169.83,425.51 188,471.73 " fill="none" id="GregorianDate-backto-MonthSet" style="stroke:#181818;stroke-width:1.0;"/><polygon fill="none" points="196.5,355.5,190.5,351.5,184.5,355.5,190.5,359.5,196.5,355.5" style="stroke:#181818;stroke-width:1.0;"/></g><!--reverse link GregorianDate to DateSet--><g id="link_GregorianDate_DateSet"><path codeLine="23" d="M345.5,371.5 C380.94,371.5 367,416.72 358.72,455.77 " fill="none" id="GregorianDate-backto-DateSet" style="stroke:#181818;stroke-width:1.0;"/><polygon fill="none" points="333.5,371.5,339.5,375.5,345.5,371.5,339.5,367.5,333.5,371.5" style="stroke:#181818;stroke-width:1.0;"/></g><!--link GregorianDateWithHour to GregorianDate--><g id="link_GregorianDateWithHour_GregorianDate"><path codeLine="29" d="M321.58,215.18 C313.34,232.4 310.5982,238.1425 300.8482,258.5225 " fill="none" id="GregorianDateWithHour-to-GregorianDate" style="stroke:#181818;stroke-width:1.0;"/><polygon fill="none" points="293.08,274.76,306.2607,261.1119,295.4357,255.9331,293.08,274.76" style="stroke:#181818;stroke-width:1.0;"/></g><!--reverse link GregorianDateWithHour to HourSet--><g id="link_GregorianDateWithHour_HourSet"><path codeLine="30" d="M353.8939,226.2041 C378.5439,285.9941 427.93,405.8 455.13,471.79 " fill="none" id="GregorianDateWithHour-backto-HourSet" style="stroke:#181818;stroke-width:1.0;"/><polygon fill="none" points="349.32,215.11,347.9089,222.1817,353.8939,226.2041,355.305,219.1325,349.32,215.11" style="stroke:#181818;stroke-width:1.0;"/></g><!--reverse link IsoWeekDate to IsoWeekWeekSet--><g id="link_IsoWeekDate_IsoWeekWeekSet"><path codeLine="38" d="M702.5,347.5 C755.57,347.5 695.39,423.26 659.09,471.8 " fill="none" id="IsoWeekDate-backto-IsoWeekWeekSet" style="stroke:#181818;stroke-width:1.0;"/><polygon fill="none" points="690.5,347.5,696.5,351.5,702.5,347.5,696.5,343.5,690.5,347.5" style="stroke:#181818;stroke-width:1.0;"/></g><!--reverse link IsoWeekDate to IsoWeekDateSet--><g id="link_IsoWeekDate_IsoWeekDateSet"><path codeLine="39" d="M702.5,363.5 C755.62,363.5 778.2,420.59 796.78,463.86 " fill="none" id="IsoWeekDate-backto-IsoWeekDateSet" style="stroke:#181818;stroke-width:1.0;"/><polygon fill="none" points="690.5,363.5,696.5,367.5,702.5,363.5,696.5,359.5,690.5,363.5" style="stroke:#181818;stroke-width:1.0;"/></g><!--link IsoWeekDateWithHour to IsoWeekDate--><g id="link_IsoWeekDateWithHour_IsoWeekDate"><path codeLine="45" d="M579.93,215.18 C587.76,234.81 591.3879,243.8982 600.3879,266.4882 " fill="none" id="IsoWeekDateWithHour-to-IsoWeekDate" style="stroke:#181818;stroke-width:1.0;"/><polygon fill="none" points="607.05,283.21,605.9619,264.2676,594.814,268.7089,607.05,283.21" style="stroke:#181818;stroke-width:1.0;"/></g><!--reverse link IsoWeekDateWithHour to HourSet--><g id="link_IsoWeekDateWithHour_HourSet"><path codeLine="46" d="M554.213,226.5807 C548.763,244.1407 545.44,255.04 539.5,275 C518.97,344 496,424.63 482.71,471.68 " fill="none" id="IsoWeekDateWithHour-backto-HourSet" style="stroke:#181818;stroke-width:1.0;"/><polygon fill="none" points="557.77,215.12,552.1713,219.6647,554.213,226.5807,559.8117,222.036,557.77,215.12" style="stroke:#181818;stroke-width:1.0;"/></g><!--SRC=[TPAzRiCW4CTtdeAjar-0eKijjHsYg4ebgoErSOniGmguaTNctGjd8E3QaIBzyVtk-tJFnOKgEWwoxbc3FsdTdvMSHFCa1wcmKLHe2p1X47h0pzPqGQWUgDRudOyCFk0VXEslvjzy0CMrh1ZhqGsX2142TYoBmePXPwau5IKrhEAcUv6JIb4V0E3NHMUeBUKqQyD67Oh9Glg2PaOLYA-9AiCMFKfXEb2D9Ls9cIiX7eRSRui-CREc80mm1wSs21SU0FTqzgrAGqU-uiurjoufCaNn-vYxxu0sQu6TIj8cO_J9hlRv4KRa7b6KVZA93o7NrKBStyN_1vMXySIoNSXEzri4z9uODg6yRtiZpCG3kQ_IPqkFmkjZ2_Eu1P-mMkznFnrGQpgVIpBaADOUVZ8UXNjSn7nig-08hqDojVDEuZnQtEDEn2fiFuRnWqkN4SInBUdio3y0]--></g></svg>