<svg xmlns="http://www.w3.org/2000/svg" xmlns:xlink="http://www.w3.org/1999/xlink" contentStyleType="text/css" height="414px" preserveAspectRatio="none" style="width:370px;height:414px;" version="1.1" viewBox="0 0 370 414" width="370px" zoomAndPan="magnify"><defs/><g><!--class GroupBy--><g id="elem_GroupBy"><rect codeLine="4" fill="#313139" height="32" id="GroupBy" rx="2.5" ry="2.5" style="stroke:#E7E7E7;stroke-width:0.5;" width="92.8193" x="61.08" y="7"/><ellipse cx="76.08" cy="23" fill="#2E5233" rx="11" ry="11" style="stroke:#E7E7E7;stroke-width:1.0;"/><path d="M79.0488,28.6406 Q78.4706,28.9375 77.83,29.0781 Q77.1894,29.2344 76.4863,29.2344 Q73.9863,29.2344 72.6581,27.5938 Q71.3456,25.9375 71.3456,22.8125 Q71.3456,19.6875 72.6581,18.0313 Q73.9863,16.375 76.4863,16.375 Q77.1894,16.375 77.83,16.5313 Q78.4863,16.6875 79.0488,16.9844 L79.0488,19.7031 Q78.4238,19.125 77.83,18.8594 Q77.2363,18.5781 76.6113,18.5781 Q75.2675,18.5781 74.58,19.6563 Q73.8925,20.7188 73.8925,22.8125 Q73.8925,24.9063 74.58,25.9844 Q75.2675,27.0469 76.6113,27.0469 Q77.2363,27.0469 77.83,26.7813 Q78.4238,26.5 79.0488,25.9219 L79.0488,28.6406 Z " fill="#FFFFFF"/><text fill="#FFFFFF" font-family="sans-serif" font-size="14" lengthAdjust="spacing" textLength="60.8193" x="90.08" y="27.8467">GroupBy</text></g><!--class GroupingSet--><g id="elem_GroupingSet"><rect codeLine="13" fill="#313139" height="32" id="GroupingSet" rx="2.5" ry="2.5" style="stroke:#E7E7E7;stroke-width:0.5;" width="119.5684" x="47.58" y="99"/><ellipse cx="62.58" cy="115" fill="#2E5233" rx="11" ry="11" style="stroke:#E7E7E7;stroke-width:1.0;"/><path d="M65.5488,120.6406 Q64.9706,120.9375 64.33,121.0781 Q63.6894,121.2344 62.9863,121.2344 Q60.4863,121.2344 59.1581,119.5938 Q57.8456,117.9375 57.8456,114.8125 Q57.8456,111.6875 59.1581,110.0313 Q60.4863,108.375 62.9863,108.375 Q63.6894,108.375 64.33,108.5313 Q64.9863,108.6875 65.5488,108.9844 L65.5488,111.7031 Q64.9238,111.125 64.33,110.8594 Q63.7363,110.5781 63.1113,110.5781 Q61.7675,110.5781 61.08,111.6563 Q60.3925,112.7188 60.3925,114.8125 Q60.3925,116.9063 61.08,117.9844 Q61.7675,119.0469 63.1113,119.0469 Q63.7363,119.0469 64.33,118.7813 Q64.9238,118.5 65.5488,117.9219 L65.5488,120.6406 Z " fill="#FFFFFF"/><text fill="#FFFFFF" font-family="sans-serif" font-size="14" lengthAdjust="spacing" textLength="87.5684" x="76.58" y="119.8467">GroupingSet</text></g><!--class FieldSet--><g id="elem_FieldSet"><rect codeLine="33" fill="#313139" height="32" id="FieldSet" rx="2.5" ry="2.5" style="stroke:#E7E7E7;stroke-width:0.5;" width="88.3213" x="127.58" y="283"/><ellipse cx="142.58" cy="299" fill="#2E5233" rx="11" ry="11" style="stroke:#E7E7E7;stroke-width:1.0;"/><path d="M145.5487,304.6406 Q144.9706,304.9375 144.33,305.0781 Q143.6894,305.2344 142.9862,305.2344 Q140.4862,305.2344 139.1581,303.5938 Q137.8456,301.9375 137.8456,298.8125 Q137.8456,295.6875 139.1581,294.0313 Q140.4862,292.375 142.9862,292.375 Q143.6894,292.375 144.33,292.5313 Q144.9862,292.6875 145.5487,292.9844 L145.5487,295.7031 Q144.9237,295.125 144.33,294.8594 Q143.7362,294.5781 143.1112,294.5781 Q141.7675,294.5781 141.08,295.6563 Q140.3925,296.7188 140.3925,298.8125 Q140.3925,300.9063 141.08,301.9844 Q141.7675,303.0469 143.1112,303.0469 Q143.7362,303.0469 144.33,302.7813 Q144.9237,302.5 145.5487,301.9219 L145.5487,304.6406 Z " fill="#FFFFFF"/><text fill="#FFFFFF" font-family="sans-serif" font-size="14" lengthAdjust="spacing" textLength="56.3213" x="156.58" y="303.8467">FieldSet</text></g><!--class Field--><g id="elem_Field"><rect codeLine="38" fill="#313139" height="32" id="Field" rx="2.5" ry="2.5" style="stroke:#E7E7E7;stroke-width:0.5;" width="65.332" x="90.08" y="375"/><ellipse cx="105.08" cy="391" fill="#2E5233" rx="11" ry="11" style="stroke:#E7E7E7;stroke-width:1.0;"/><path d="M108.0488,396.6406 Q107.4706,396.9375 106.83,397.0781 Q106.1894,397.2344 105.4863,397.2344 Q102.9863,397.2344 101.6581,395.5938 Q100.3456,393.9375 100.3456,390.8125 Q100.3456,387.6875 101.6581,386.0313 Q102.9863,384.375 105.4863,384.375 Q106.1894,384.375 106.83,384.5313 Q107.4863,384.6875 108.0488,384.9844 L108.0488,387.7031 Q107.4238,387.125 106.83,386.8594 Q106.2363,386.5781 105.6113,386.5781 Q104.2675,386.5781 103.58,387.6563 Q102.8925,388.7188 102.8925,390.8125 Q102.8925,392.9063 103.58,393.9844 Q104.2675,395.0469 105.6113,395.0469 Q106.2363,395.0469 106.83,394.7813 Q107.4238,394.5 108.0488,393.9219 L108.0488,396.6406 Z " fill="#FFFFFF"/><text fill="#FFFFFF" font-family="sans-serif" font-size="14" lengthAdjust="spacing" textLength="33.332" x="119.08" y="395.8467">Field</text></g><!--class Cube--><g id="elem_Cube"><rect codeLine="21" fill="#313139" height="32" id="Cube" rx="2.5" ry="2.5" style="stroke:#E7E7E7;stroke-width:0.5;" width="68.1484" x="40.58" y="191"/><ellipse cx="55.58" cy="207" fill="#2E5233" rx="11" ry="11" style="stroke:#E7E7E7;stroke-width:1.0;"/><path d="M58.5488,212.6406 Q57.9706,212.9375 57.33,213.0781 Q56.6894,213.2344 55.9863,213.2344 Q53.4863,213.2344 52.1581,211.5938 Q50.8456,209.9375 50.8456,206.8125 Q50.8456,203.6875 52.1581,202.0313 Q53.4863,200.375 55.9863,200.375 Q56.6894,200.375 57.33,200.5313 Q57.9863,200.6875 58.5488,200.9844 L58.5488,203.7031 Q57.9238,203.125 57.33,202.8594 Q56.7363,202.5781 56.1113,202.5781 Q54.7675,202.5781 54.08,203.6563 Q53.3925,204.7188 53.3925,206.8125 Q53.3925,208.9063 54.08,209.9844 Q54.7675,211.0469 56.1113,211.0469 Q56.7363,211.0469 57.33,210.7813 Q57.9238,210.5 58.5488,209.9219 L58.5488,212.6406 Z " fill="#FFFFFF"/><text fill="#FFFFFF" font-family="sans-serif" font-size="14" lengthAdjust="spacing" textLength="36.1484" x="69.58" y="211.8467">Cube</text></g><!--class RollUp--><g id="elem_RollUp"><rect codeLine="27" fill="#313139" height="32" id="RollUp" rx="2.5" ry="2.5" style="stroke:#E7E7E7;stroke-width:0.5;" width="77.2061" x="286.08" y="191"/><ellipse cx="301.08" cy="207" fill="#2E5233" rx="11" ry="11" style="stroke:#E7E7E7;stroke-width:1.0;"/><path d="M304.0488,212.6406 Q303.4706,212.9375 302.83,213.0781 Q302.1894,213.2344 301.4863,213.2344 Q298.9863,213.2344 297.6581,211.5938 Q296.3456,209.9375 296.3456,206.8125 Q296.3456,203.6875 297.6581,202.0313 Q298.9863,200.375 301.4863,200.375 Q302.1894,200.375 302.83,200.5313 Q303.4863,200.6875 304.0488,200.9844 L304.0488,203.7031 Q303.4238,203.125 302.83,202.8594 Q302.2363,202.5781 301.6113,202.5781 Q300.2675,202.5781 299.58,203.6563 Q298.8925,204.7188 298.8925,206.8125 Q298.8925,208.9063 299.58,209.9844 Q300.2675,211.0469 301.6113,211.0469 Q302.2363,211.0469 302.83,210.7813 Q303.4238,210.5 304.0488,209.9219 L304.0488,212.6406 Z " fill="#FFFFFF"/><text fill="#FFFFFF" font-family="sans-serif" font-size="14" lengthAdjust="spacing" textLength="45.2061" x="315.08" y="211.8467">RollUp</text></g><!--reverse link GroupBy to GroupingSet--><g id="link_GroupBy_GroupingSet"><path codeLine="7" d="M107.58,51.27 C107.58,67.92 107.58,82.4 107.58,98.96 " fill="none" id="GroupBy-backto-GroupingSet" style="stroke:#E7E7E7;stroke-width:1.0;"/><polygon fill="none" points="107.58,39.27,103.58,45.27,107.58,51.27,111.58,45.27,107.58,39.27" style="stroke:#E7E7E7;stroke-width:1.0;"/></g><!--reverse link GroupBy to FieldSet--><g id="link_GroupBy_FieldSet"><path codeLine="8" d="M149.9089,44.8975 C172.3989,57.4475 190.32,71.82 203.58,99 C234.33,162.06 197.28,248.41 179.77,282.89 " fill="none" id="GroupBy-backto-FieldSet" style="stroke:#E7E7E7;stroke-width:1.0;"/><polygon fill="none" points="139.43,39.05,142.7203,45.4667,149.9089,44.8975,146.6186,38.4808,139.43,39.05" style="stroke:#E7E7E7;stroke-width:1.0;"/></g><!--reverse link GroupBy to Field--><g id="link_GroupBy_Field"><path codeLine="9" d="M68.6129,45.3348 C47.5929,58.1448 30.93,72.43 18.58,99 C10.75,115.83 6,167.76 22.58,223 C41.03,284.5 87.18,346.7 109.74,374.69 " fill="none" id="GroupBy-backto-Field" style="stroke:#E7E7E7;stroke-width:1.0;"/><polygon fill="none" points="78.86,39.09,71.6549,38.7967,68.6129,45.3348,75.818,45.6281,78.86,39.09" style="stroke:#E7E7E7;stroke-width:1.0;"/></g><!--reverse link GroupBy to Cube--><g id="link_GroupBy_Cube"><path codeLine="10" d="M73.6778,46.0705 C55.0578,59.3005 40.47,73.42 29.58,99 C15.68,131.63 42.16,169.97 60.07,190.74 " fill="none" id="GroupBy-backto-Cube" style="stroke:#E7E7E7;stroke-width:1.0;"/><polygon fill="none" points="83.46,39.12,76.2521,39.3345,73.6778,46.0705,80.8857,45.856,83.46,39.12" style="stroke:#E7E7E7;stroke-width:1.0;"/></g><!--reverse link GroupBy to RollUp--><g id="link_GroupBy_RollUp"><path codeLine="11" d="M165.5921,41.7761 C199.3921,53.6461 233.16,69.57 264.58,99 C292.87,125.5 311.26,168.4 319.53,190.99 " fill="none" id="GroupBy-backto-RollUp" style="stroke:#E7E7E7;stroke-width:1.0;"/><polygon fill="none" points="154.27,37.8,158.6057,43.5621,165.5921,41.7761,161.2564,36.014,154.27,37.8" style="stroke:#E7E7E7;stroke-width:1.0;"/></g><!--reverse link GroupingSet to Cube--><g id="link_GroupingSet_Cube"><path codeLine="16" d="M97.846,142.5354 C91.736,159.1854 86.17,174.4 80.09,190.96 " fill="none" id="GroupingSet-backto-Cube" style="stroke:#E7E7E7;stroke-width:1.0;"/><polygon fill="none" points="101.98,131.27,96.1578,135.5247,97.846,142.5354,103.6681,138.2807,101.98,131.27" style="stroke:#E7E7E7;stroke-width:1.0;"/></g><!--reverse link GroupingSet to RollUp--><g id="link_GroupingSet_RollUp"><path codeLine="17" d="M154.984,135.6585 C195.044,152.2785 248.03,174.25 288.14,190.89 " fill="none" id="GroupingSet-backto-RollUp" style="stroke:#E7E7E7;stroke-width:1.0;"/><polygon fill="none" points="143.9,131.06,147.9091,137.0539,154.984,135.6585,150.9748,129.6646,143.9,131.06" style="stroke:#E7E7E7;stroke-width:1.0;"/></g><!--reverse link GroupingSet to FieldSet--><g id="link_GroupingSet_FieldSet"><path codeLine="18" d="M116.9011,142.5204 C128.9811,176.8704 154.27,248.79 166.29,282.97 " fill="none" id="GroupingSet-backto-FieldSet" style="stroke:#E7E7E7;stroke-width:1.0;"/><polygon fill="none" points="112.92,131.2,111.1371,138.1872,116.9011,142.5204,118.684,135.5332,112.92,131.2" style="stroke:#E7E7E7;stroke-width:1.0;"/></g><!--reverse link GroupingSet to GroupingSet--><g id="link_GroupingSet_GroupingSet"><path codeLine="19" d="M162.4454,97.2455 C189.0954,93.3755 202.58,100.45 202.58,115 C202.58,129.55 177.22,134.9 150.57,131.03 " fill="none" id="GroupingSet-backto-GroupingSet" style="stroke:#E7E7E7;stroke-width:1.0;"/><polygon fill="none" points="150.57,98.97,157.0826,102.0662,162.4454,97.2455,155.9329,94.1493,150.57,98.97" style="stroke:#E7E7E7;stroke-width:1.0;"/></g><!--reverse link Cube to FieldSet--><g id="link_Cube_FieldSet"><path codeLine="24" d="M99.8279,231.4307 C117.7779,248.0807 137.52,266.4 155.37,282.96 " fill="none" id="Cube-backto-FieldSet" style="stroke:#E7E7E7;stroke-width:1.0;"/><polygon fill="none" points="91.03,223.27,92.7087,230.283,99.8279,231.4307,98.1492,224.4177,91.03,223.27" style="stroke:#E7E7E7;stroke-width:1.0;"/></g><!--reverse link Cube to Field--><g id="link_Cube_Field"><path codeLine="25" d="M81.6504,234.8032 C90.7104,269.1532 109.6,340.79 118.61,374.97 " fill="none" id="Cube-backto-Field" style="stroke:#E7E7E7;stroke-width:1.0;"/><polygon fill="none" points="78.59,223.2,76.2525,230.0217,81.6504,234.8032,83.9879,227.9815,78.59,223.2" style="stroke:#E7E7E7;stroke-width:1.0;"/></g><!--reverse link RollUp to FieldSet--><g id="link_RollUp_FieldSet"><path codeLine="30" d="M288.6281,229.1465 C260.3881,245.7665 225.55,266.25 197.27,282.89 " fill="none" id="RollUp-backto-FieldSet" style="stroke:#E7E7E7;stroke-width:1.0;"/><polygon fill="none" points="298.97,223.06,291.7702,222.6559,288.6281,229.1465,295.8279,229.5505,298.97,223.06" style="stroke:#E7E7E7;stroke-width:1.0;"/></g><!--reverse link RollUp to Field--><g id="link_RollUp_Field"><path codeLine="31" d="M306.5617,232.9955 C290.5317,254.8455 266.1,285.89 233.58,315 C207.06,338.73 172.59,360.89 149.15,374.87 " fill="none" id="RollUp-backto-Field" style="stroke:#E7E7E7;stroke-width:1.0;"/><polygon fill="none" points="313.66,223.32,306.8857,225.7916,306.5617,232.9955,313.336,230.5238,313.66,223.32" style="stroke:#E7E7E7;stroke-width:1.0;"/></g><!--reverse link FieldSet to Field--><g id="link_FieldSet_Field"><path codeLine="36" d="M157.5295,325.8079 C148.4595,342.4579 139.78,358.4 130.77,374.96 " fill="none" id="FieldSet-backto-Field" style="stroke:#E7E7E7;stroke-width:1.0;"/><polygon fill="none" points="163.27,315.27,156.8871,318.6255,157.5295,325.8079,163.9124,322.4524,163.27,315.27" style="stroke:#E7E7E7;stroke-width:1.0;"/></g><!--SRC=[RO_D3SCW34Rlde85iaGZjVTM7O04AqNXJq0EKTNTazPGuIWt-zdF7wHPko2ZjCQFCoeno76Ueb-SwhtnKUGeNTeNq6M0brOeq8Qy2ejsm9W0HYDJ4hTT2PTLlE43K1lVTJJGRdfWPlogqQXJo4Y_3CZ0tHlp32oMhZVH1N2_WUN64VCdDOFs3oNuUvSIVnNJEQa6XP9JQcOTMVNg0fd_xdoFbc03]--></g></svg>