<svg xmlns="http://www.w3.org/2000/svg" xmlns:xlink="http://www.w3.org/1999/xlink" contentStyleType="text/css" height="322px" preserveAspectRatio="none" style="width:341px;height:322px;" version="1.1" viewBox="0 0 341 322" width="341px" zoomAndPan="magnify"><defs/><g><!--class GroupBy--><g id="elem_GroupBy"><rect codeLine="4" fill="#313139" height="32" id="GroupBy" rx="2.5" ry="2.5" style="stroke:#E7E7E7;stroke-width:0.5;" width="92.8193" x="115.5" y="7"/><ellipse cx="130.5" cy="23" fill="#2E5233" rx="11" ry="11" style="stroke:#E7E7E7;stroke-width:1.0;"/><path d="M133.4688,28.6406 Q132.8906,28.9375 132.25,29.0781 Q131.6094,29.2344 130.9063,29.2344 Q128.4063,29.2344 127.0781,27.5938 Q125.7656,25.9375 125.7656,22.8125 Q125.7656,19.6875 127.0781,18.0313 Q128.4063,16.375 130.9063,16.375 Q131.6094,16.375 132.25,16.5313 Q132.9063,16.6875 133.4688,16.9844 L133.4688,19.7031 Q132.8438,19.125 132.25,18.8594 Q131.6563,18.5781 131.0313,18.5781 Q129.6875,18.5781 129,19.6563 Q128.3125,20.7188 128.3125,22.8125 Q128.3125,24.9063 129,25.9844 Q129.6875,27.0469 131.0313,27.0469 Q131.6563,27.0469 132.25,26.7813 Q132.8438,26.5 133.4688,25.9219 L133.4688,28.6406 Z " fill="#FFFFFF"/><text fill="#FFFFFF" font-family="sans-serif" font-size="14" lengthAdjust="spacing" textLength="60.8193" x="144.5" y="27.8467">GroupBy</text></g><!--class GroupingSet--><g id="elem_GroupingSet"><rect codeLine="13" fill="#313139" height="32" id="GroupingSet" rx="2.5" ry="2.5" style="stroke:#E7E7E7;stroke-width:0.5;" width="119.5684" x="102" y="99"/><ellipse cx="117" cy="115" fill="#2E5233" rx="11" ry="11" style="stroke:#E7E7E7;stroke-width:1.0;"/><path d="M119.9688,120.6406 Q119.3906,120.9375 118.75,121.0781 Q118.1094,121.2344 117.4063,121.2344 Q114.9063,121.2344 113.5781,119.5938 Q112.2656,117.9375 112.2656,114.8125 Q112.2656,111.6875 113.5781,110.0313 Q114.9063,108.375 117.4063,108.375 Q118.1094,108.375 118.75,108.5313 Q119.4063,108.6875 119.9688,108.9844 L119.9688,111.7031 Q119.3438,111.125 118.75,110.8594 Q118.1563,110.5781 117.5313,110.5781 Q116.1875,110.5781 115.5,111.6563 Q114.8125,112.7188 114.8125,114.8125 Q114.8125,116.9063 115.5,117.9844 Q116.1875,119.0469 117.5313,119.0469 Q118.1563,119.0469 118.75,118.7813 Q119.3438,118.5 119.9688,117.9219 L119.9688,120.6406 Z " fill="#FFFFFF"/><text fill="#FFFFFF" font-family="sans-serif" font-size="14" lengthAdjust="spacing" textLength="87.5684" x="131" y="119.8467">GroupingSet</text></g><!--class FieldSet--><g id="elem_FieldSet"><rect codeLine="31" fill="#313139" height="32" id="FieldSet" rx="2.5" ry="2.5" style="stroke:#E7E7E7;stroke-width:0.5;" width="88.3213" x="110" y="191"/><ellipse cx="125" cy="207" fill="#2E5233" rx="11" ry="11" style="stroke:#E7E7E7;stroke-width:1.0;"/><path d="M127.9688,212.6406 Q127.3906,212.9375 126.75,213.0781 Q126.1094,213.2344 125.4063,213.2344 Q122.9063,213.2344 121.5781,211.5938 Q120.2656,209.9375 120.2656,206.8125 Q120.2656,203.6875 121.5781,202.0313 Q122.9063,200.375 125.4063,200.375 Q126.1094,200.375 126.75,200.5313 Q127.4063,200.6875 127.9688,200.9844 L127.9688,203.7031 Q127.3438,203.125 126.75,202.8594 Q126.1563,202.5781 125.5313,202.5781 Q124.1875,202.5781 123.5,203.6563 Q122.8125,204.7188 122.8125,206.8125 Q122.8125,208.9063 123.5,209.9844 Q124.1875,211.0469 125.5313,211.0469 Q126.1563,211.0469 126.75,210.7813 Q127.3438,210.5 127.9688,209.9219 L127.9688,212.6406 Z " fill="#FFFFFF"/><text fill="#FFFFFF" font-family="sans-serif" font-size="14" lengthAdjust="spacing" textLength="56.3213" x="139" y="211.8467">FieldSet</text></g><!--class Field--><g id="elem_Field"><rect codeLine="38" fill="#313139" height="32" id="Field" rx="2.5" ry="2.5" style="stroke:#E7E7E7;stroke-width:0.5;" width="65.332" x="180.5" y="283"/><ellipse cx="195.5" cy="299" fill="#2E5233" rx="11" ry="11" style="stroke:#E7E7E7;stroke-width:1.0;"/><path d="M198.4688,304.6406 Q197.8906,304.9375 197.25,305.0781 Q196.6094,305.2344 195.9063,305.2344 Q193.4063,305.2344 192.0781,303.5938 Q190.7656,301.9375 190.7656,298.8125 Q190.7656,295.6875 192.0781,294.0313 Q193.4063,292.375 195.9063,292.375 Q196.6094,292.375 197.25,292.5313 Q197.9063,292.6875 198.4688,292.9844 L198.4688,295.7031 Q197.8438,295.125 197.25,294.8594 Q196.6563,294.5781 196.0313,294.5781 Q194.6875,294.5781 194,295.6563 Q193.3125,296.7188 193.3125,298.8125 Q193.3125,300.9063 194,301.9844 Q194.6875,303.0469 196.0313,303.0469 Q196.6563,303.0469 197.25,302.7813 Q197.8438,302.5 198.4688,301.9219 L198.4688,304.6406 Z " fill="#FFFFFF"/><text fill="#FFFFFF" font-family="sans-serif" font-size="14" lengthAdjust="spacing" textLength="33.332" x="209.5" y="303.8467">Field</text></g><!--class Cube--><g id="elem_Cube"><rect codeLine="21" fill="#313139" height="32" id="Cube" rx="2.5" ry="2.5" style="stroke:#E7E7E7;stroke-width:0.5;" width="68.1484" x="7" y="191"/><ellipse cx="22" cy="207" fill="#2E5233" rx="11" ry="11" style="stroke:#E7E7E7;stroke-width:1.0;"/><path d="M24.9688,212.6406 Q24.3906,212.9375 23.75,213.0781 Q23.1094,213.2344 22.4063,213.2344 Q19.9063,213.2344 18.5781,211.5938 Q17.2656,209.9375 17.2656,206.8125 Q17.2656,203.6875 18.5781,202.0313 Q19.9063,200.375 22.4063,200.375 Q23.1094,200.375 23.75,200.5313 Q24.4063,200.6875 24.9688,200.9844 L24.9688,203.7031 Q24.3438,203.125 23.75,202.8594 Q23.1563,202.5781 22.5313,202.5781 Q21.1875,202.5781 20.5,203.6563 Q19.8125,204.7188 19.8125,206.8125 Q19.8125,208.9063 20.5,209.9844 Q21.1875,211.0469 22.5313,211.0469 Q23.1563,211.0469 23.75,210.7813 Q24.3438,210.5 24.9688,209.9219 L24.9688,212.6406 Z " fill="#FFFFFF"/><text fill="#FFFFFF" font-family="sans-serif" font-size="14" lengthAdjust="spacing" textLength="36.1484" x="36" y="211.8467">Cube</text></g><!--class RollUp--><g id="elem_RollUp"><rect codeLine="26" fill="#313139" height="32" id="RollUp" rx="2.5" ry="2.5" style="stroke:#E7E7E7;stroke-width:0.5;" width="77.2061" x="233.5" y="191"/><ellipse cx="248.5" cy="207" fill="#2E5233" rx="11" ry="11" style="stroke:#E7E7E7;stroke-width:1.0;"/><path d="M251.4688,212.6406 Q250.8906,212.9375 250.25,213.0781 Q249.6094,213.2344 248.9063,213.2344 Q246.4063,213.2344 245.0781,211.5938 Q243.7656,209.9375 243.7656,206.8125 Q243.7656,203.6875 245.0781,202.0313 Q246.4063,200.375 248.9063,200.375 Q249.6094,200.375 250.25,200.5313 Q250.9063,200.6875 251.4688,200.9844 L251.4688,203.7031 Q250.8438,203.125 250.25,202.8594 Q249.6563,202.5781 249.0313,202.5781 Q247.6875,202.5781 247,203.6563 Q246.3125,204.7188 246.3125,206.8125 Q246.3125,208.9063 247,209.9844 Q247.6875,211.0469 249.0313,211.0469 Q249.6563,211.0469 250.25,210.7813 Q250.8438,210.5 251.4688,209.9219 L251.4688,212.6406 Z " fill="#FFFFFF"/><text fill="#FFFFFF" font-family="sans-serif" font-size="14" lengthAdjust="spacing" textLength="45.2061" x="262.5" y="211.8467">RollUp</text></g><!--reverse link GroupBy to GroupingSet--><g id="link_GroupBy_GroupingSet"><path codeLine="7" d="M162,51.27 C162,67.92 162,82.4 162,98.96 " fill="none" id="GroupBy-backto-GroupingSet" style="stroke:#E7E7E7;stroke-width:1.0;"/><polygon fill="none" points="162,39.27,158,45.27,162,51.27,166,45.27,162,39.27" style="stroke:#E7E7E7;stroke-width:1.0;"/></g><!--reverse link GroupBy to FieldSet--><g id="link_GroupBy_FieldSet"><path codeLine="8" d="M128.0978,46.0705 C109.4778,59.3005 94.89,73.42 84,99 C68.96,134.33 106.21,170.78 131.95,190.69 " fill="none" id="GroupBy-backto-FieldSet" style="stroke:#E7E7E7;stroke-width:1.0;"/><polygon fill="none" points="137.88,39.12,130.6721,39.3345,128.0978,46.0705,135.3057,45.856,137.88,39.12" style="stroke:#E7E7E7;stroke-width:1.0;"/></g><!--reverse link GroupBy to Field--><g id="link_GroupBy_Field"><path codeLine="9" d="M211.8151,44.0198 C239.5351,56.4798 265.05,71.64 289,99 C318.26,132.41 319.16,147.48 328,191 C330.83,204.94 334.77,210.49 328,223 C310.69,254.96 273.19,275.46 245.7,286.81 " fill="none" id="GroupBy-backto-Field" style="stroke:#E7E7E7;stroke-width:1.0;"/><polygon fill="none" points="200.87,39.1,204.7026,45.2083,211.8151,44.0198,207.9825,37.9115,200.87,39.1" style="stroke:#E7E7E7;stroke-width:1.0;"/></g><!--reverse link GroupBy to Cube--><g id="link_GroupBy_Cube"><path codeLine="10" d="M127.0292,45.8221 C106.9692,59.2121 89.51,73.83 73,99 C53.96,128.02 45.9,168.77 42.78,190.66 " fill="none" id="GroupBy-backto-Cube" style="stroke:#E7E7E7;stroke-width:1.0;"/><polygon fill="none" points="137.01,39.16,129.7989,39.1641,127.0292,45.8221,134.2403,45.818,137.01,39.16" style="stroke:#E7E7E7;stroke-width:1.0;"/></g><!--reverse link GroupBy to RollUp--><g id="link_GroupBy_RollUp"><path codeLine="11" d="M201.8814,45.2573 C223.7114,58.1073 241.84,72.57 257,99 C273.71,128.12 274.39,168.83 273.28,190.69 " fill="none" id="GroupBy-backto-RollUp" style="stroke:#E7E7E7;stroke-width:1.0;"/><polygon fill="none" points="191.54,39.17,194.6816,45.6608,201.8814,45.2573,198.7398,38.7665,191.54,39.17" style="stroke:#E7E7E7;stroke-width:1.0;"/></g><!--reverse link GroupingSet to Cube--><g id="link_GroupingSet_Cube"><path codeLine="16" d="M132.1221,138.2227 C109.7821,154.8427 83.68,174.25 61.32,190.89 " fill="none" id="GroupingSet-backto-Cube" style="stroke:#E7E7E7;stroke-width:1.0;"/><polygon fill="none" points="141.75,131.06,134.5485,131.4321,132.1221,138.2227,139.3236,137.8506,141.75,131.06" style="stroke:#E7E7E7;stroke-width:1.0;"/></g><!--reverse link GroupingSet to RollUp--><g id="link_GroupingSet_RollUp"><path codeLine="17" d="M189.9475,138.8689 C210.2975,155.5189 233.37,174.4 253.62,190.96 " fill="none" id="GroupingSet-backto-RollUp" style="stroke:#E7E7E7;stroke-width:1.0;"/><polygon fill="none" points="180.66,131.27,182.7708,138.1653,189.9475,138.8689,187.8367,131.9736,180.66,131.27" style="stroke:#E7E7E7;stroke-width:1.0;"/></g><!--reverse link GroupingSet to FieldSet--><g id="link_GroupingSet_FieldSet"><path codeLine="18" d="M159.5775,143.2229 C158.0975,159.8729 156.81,174.4 155.34,190.96 " fill="none" id="GroupingSet-backto-FieldSet" style="stroke:#E7E7E7;stroke-width:1.0;"/><polygon fill="none" points="160.64,131.27,156.1245,136.8923,159.5775,143.2229,164.0931,137.6006,160.64,131.27" style="stroke:#E7E7E7;stroke-width:1.0;"/></g><!--reverse link GroupingSet to GroupingSet--><g id="link_GroupingSet_GroupingSet"><path codeLine="19" d="M216.8654,97.2455 C243.5154,93.3755 257,100.45 257,115 C257,129.55 231.64,134.9 204.99,131.03 " fill="none" id="GroupingSet-backto-GroupingSet" style="stroke:#E7E7E7;stroke-width:1.0;"/><polygon fill="none" points="204.99,98.97,211.5026,102.0662,216.8654,97.2455,210.3529,94.1493,204.99,98.97" style="stroke:#E7E7E7;stroke-width:1.0;"/></g><!--reverse link Cube to Field--><g id="link_Cube_Field"><path codeLine="24" d="M80.4215,228.6252 C112.1715,245.2452 152.33,266.25 184.12,282.89 " fill="none" id="Cube-backto-Field" style="stroke:#E7E7E7;stroke-width:1.0;"/><polygon fill="none" points="69.79,223.06,73.2507,229.3864,80.4215,228.6252,76.9608,222.2988,69.79,223.06" style="stroke:#E7E7E7;stroke-width:1.0;"/></g><!--reverse link RollUp to Field--><g id="link_RollUp_Field"><path codeLine="29" d="M255.4131,233.3072 C244.5031,249.9572 233.72,266.4 222.86,282.96 " fill="none" id="RollUp-backto-Field" style="stroke:#E7E7E7;stroke-width:1.0;"/><polygon fill="none" points="261.99,223.27,255.3558,226.0963,255.4131,233.3072,262.0473,230.4809,261.99,223.27" style="stroke:#E7E7E7;stroke-width:1.0;"/></g><!--reverse link Cube to FieldSet--><g id="link_Cube_FieldSet"><path codeLine="34" d="M87.43,207 C98.89,207 98.35,207 109.8,207 " fill="none" id="Cube-backto-FieldSet" style="stroke:#E7E7E7;stroke-width:1.0;"/><polygon fill="none" points="75.43,207,81.43,211,87.43,207,81.43,203,75.43,207" style="stroke:#E7E7E7;stroke-width:1.0;"/></g><!--reverse link FieldSet to Field--><g id="link_FieldSet_Field"><path codeLine="35" d="M170.5869,233.3072 C181.4969,249.9572 192.28,266.4 203.14,282.96 " fill="none" id="FieldSet-backto-Field" style="stroke:#E7E7E7;stroke-width:1.0;"/><polygon fill="none" points="164.01,223.27,163.9527,230.4809,170.5869,233.3072,170.6442,226.0963,164.01,223.27" style="stroke:#E7E7E7;stroke-width:1.0;"/></g><!--link FieldSet to RollUp--><g id="link_FieldSet_RollUp"><path codeLine="36" d="M198.25,207 C209.97,207 209.68,207 221.4,207 " fill="none" id="FieldSet-to-RollUp" style="stroke:#E7E7E7;stroke-width:1.0;"/><polygon fill="none" points="233.4,207,227.4,203,221.4,207,227.4,211,233.4,207" style="stroke:#E7E7E7;stroke-width:1.0;"/></g><!--SRC=[RP114i8W34NtEGKNw2NiZEvrF00jcSeK20DquJZUtLfeIwgxy7xoVq8SjVCoI6ke7r69JlRZ46XogYL3GQGWNPmRq2M0XrOeqFhq51PjXo42z4R6A2xpY3yznGlU0Ek3cYOBsWqtJ8oVDHhr5pBIJXqoS2LZxfx5PlSgkW0-Ny7YSSHyfKgeRoZ1Nz-Sk5JxyaNF4RcZr3yzQnxpsRVOv7rmGmqTFc9HiX5y0000]--></g></svg>