<svg xmlns="http://www.w3.org/2000/svg" xmlns:xlink="http://www.w3.org/1999/xlink" contentStyleType="text/css" height="414px" preserveAspectRatio="none" style="width:368px;height:414px;" version="1.1" viewBox="0 0 368 414" width="368px" zoomAndPan="magnify"><defs/><g><!--class GroupBy--><g id="elem_GroupBy"><rect codeLine="4" fill="#313139" height="32" id="GroupBy" rx="2.5" ry="2.5" style="stroke:#E7E7E7;stroke-width:0.5;" width="92.8193" x="77.27" y="7"/><ellipse cx="92.27" cy="23" fill="#2E5233" rx="11" ry="11" style="stroke:#E7E7E7;stroke-width:1.0;"/><path d="M95.2388,28.6406 Q94.6606,28.9375 94.02,29.0781 Q93.3794,29.2344 92.6763,29.2344 Q90.1763,29.2344 88.8481,27.5938 Q87.5356,25.9375 87.5356,22.8125 Q87.5356,19.6875 88.8481,18.0313 Q90.1763,16.375 92.6763,16.375 Q93.3794,16.375 94.02,16.5313 Q94.6763,16.6875 95.2388,16.9844 L95.2388,19.7031 Q94.6138,19.125 94.02,18.8594 Q93.4263,18.5781 92.8013,18.5781 Q91.4575,18.5781 90.77,19.6563 Q90.0825,20.7188 90.0825,22.8125 Q90.0825,24.9063 90.77,25.9844 Q91.4575,27.0469 92.8013,27.0469 Q93.4263,27.0469 94.02,26.7813 Q94.6138,26.5 95.2388,25.9219 L95.2388,28.6406 Z " fill="#FFFFFF"/><text fill="#FFFFFF" font-family="sans-serif" font-size="14" lengthAdjust="spacing" textLength="60.8193" x="106.27" y="27.8467">GroupBy</text></g><!--class GroupingSet--><g id="elem_GroupingSet"><rect codeLine="13" fill="#313139" height="32" id="GroupingSet" rx="2.5" ry="2.5" style="stroke:#E7E7E7;stroke-width:0.5;" width="119.5684" x="63.77" y="99"/><ellipse cx="78.77" cy="115" fill="#2E5233" rx="11" ry="11" style="stroke:#E7E7E7;stroke-width:1.0;"/><path d="M81.7388,120.6406 Q81.1606,120.9375 80.52,121.0781 Q79.8794,121.2344 79.1763,121.2344 Q76.6763,121.2344 75.3481,119.5938 Q74.0356,117.9375 74.0356,114.8125 Q74.0356,111.6875 75.3481,110.0313 Q76.6763,108.375 79.1763,108.375 Q79.8794,108.375 80.52,108.5313 Q81.1763,108.6875 81.7388,108.9844 L81.7388,111.7031 Q81.1138,111.125 80.52,110.8594 Q79.9263,110.5781 79.3013,110.5781 Q77.9575,110.5781 77.27,111.6563 Q76.5825,112.7188 76.5825,114.8125 Q76.5825,116.9063 77.27,117.9844 Q77.9575,119.0469 79.3013,119.0469 Q79.9263,119.0469 80.52,118.7813 Q81.1138,118.5 81.7388,117.9219 L81.7388,120.6406 Z " fill="#FFFFFF"/><text fill="#FFFFFF" font-family="sans-serif" font-size="14" lengthAdjust="spacing" textLength="87.5684" x="92.77" y="119.8467">GroupingSet</text></g><!--class FieldSet--><g id="elem_FieldSet"><rect codeLine="32" fill="#313139" height="32" id="FieldSet" rx="2.5" ry="2.5" style="stroke:#E7E7E7;stroke-width:0.5;" width="88.3213" x="125.77" y="283"/><ellipse cx="140.77" cy="299" fill="#2E5233" rx="11" ry="11" style="stroke:#E7E7E7;stroke-width:1.0;"/><path d="M143.7388,304.6406 Q143.1606,304.9375 142.52,305.0781 Q141.8794,305.2344 141.1763,305.2344 Q138.6763,305.2344 137.3481,303.5938 Q136.0356,301.9375 136.0356,298.8125 Q136.0356,295.6875 137.3481,294.0313 Q138.6763,292.375 141.1763,292.375 Q141.8794,292.375 142.52,292.5313 Q143.1763,292.6875 143.7388,292.9844 L143.7388,295.7031 Q143.1138,295.125 142.52,294.8594 Q141.9263,294.5781 141.3013,294.5781 Q139.9575,294.5781 139.27,295.6563 Q138.5825,296.7188 138.5825,298.8125 Q138.5825,300.9063 139.27,301.9844 Q139.9575,303.0469 141.3013,303.0469 Q141.9263,303.0469 142.52,302.7813 Q143.1138,302.5 143.7388,301.9219 L143.7388,304.6406 Z " fill="#FFFFFF"/><text fill="#FFFFFF" font-family="sans-serif" font-size="14" lengthAdjust="spacing" textLength="56.3213" x="154.77" y="303.8467">FieldSet</text></g><!--class Field--><g id="elem_Field"><rect codeLine="37" fill="#313139" height="32" id="Field" rx="2.5" ry="2.5" style="stroke:#E7E7E7;stroke-width:0.5;" width="65.332" x="88.27" y="375"/><ellipse cx="103.27" cy="391" fill="#2E5233" rx="11" ry="11" style="stroke:#E7E7E7;stroke-width:1.0;"/><path d="M106.2388,396.6406 Q105.6606,396.9375 105.02,397.0781 Q104.3794,397.2344 103.6763,397.2344 Q101.1763,397.2344 99.8481,395.5938 Q98.5356,393.9375 98.5356,390.8125 Q98.5356,387.6875 99.8481,386.0313 Q101.1763,384.375 103.6763,384.375 Q104.3794,384.375 105.02,384.5313 Q105.6763,384.6875 106.2388,384.9844 L106.2388,387.7031 Q105.6138,387.125 105.02,386.8594 Q104.4263,386.5781 103.8013,386.5781 Q102.4575,386.5781 101.77,387.6563 Q101.0825,388.7188 101.0825,390.8125 Q101.0825,392.9063 101.77,393.9844 Q102.4575,395.0469 103.8013,395.0469 Q104.4263,395.0469 105.02,394.7813 Q105.6138,394.5 106.2388,393.9219 L106.2388,396.6406 Z " fill="#FFFFFF"/><text fill="#FFFFFF" font-family="sans-serif" font-size="14" lengthAdjust="spacing" textLength="33.332" x="117.27" y="395.8467">Field</text></g><!--class Cube--><g id="elem_Cube"><rect codeLine="20" fill="#313139" height="32" id="Cube" rx="2.5" ry="2.5" style="stroke:#E7E7E7;stroke-width:0.5;" width="68.1484" x="38.77" y="191"/><ellipse cx="53.77" cy="207" fill="#2E5233" rx="11" ry="11" style="stroke:#E7E7E7;stroke-width:1.0;"/><path d="M56.7388,212.6406 Q56.1606,212.9375 55.52,213.0781 Q54.8794,213.2344 54.1763,213.2344 Q51.6763,213.2344 50.3481,211.5938 Q49.0356,209.9375 49.0356,206.8125 Q49.0356,203.6875 50.3481,202.0313 Q51.6763,200.375 54.1763,200.375 Q54.8794,200.375 55.52,200.5313 Q56.1763,200.6875 56.7388,200.9844 L56.7388,203.7031 Q56.1138,203.125 55.52,202.8594 Q54.9263,202.5781 54.3013,202.5781 Q52.9575,202.5781 52.27,203.6563 Q51.5825,204.7188 51.5825,206.8125 Q51.5825,208.9063 52.27,209.9844 Q52.9575,211.0469 54.3013,211.0469 Q54.9263,211.0469 55.52,210.7813 Q56.1138,210.5 56.7388,209.9219 L56.7388,212.6406 Z " fill="#FFFFFF"/><text fill="#FFFFFF" font-family="sans-serif" font-size="14" lengthAdjust="spacing" textLength="36.1484" x="67.77" y="211.8467">Cube</text></g><!--class RollUp--><g id="elem_RollUp"><rect codeLine="26" fill="#313139" height="32" id="RollUp" rx="2.5" ry="2.5" style="stroke:#E7E7E7;stroke-width:0.5;" width="77.2061" x="284.27" y="191"/><ellipse cx="299.27" cy="207" fill="#2E5233" rx="11" ry="11" style="stroke:#E7E7E7;stroke-width:1.0;"/><path d="M302.2388,212.6406 Q301.6606,212.9375 301.02,213.0781 Q300.3794,213.2344 299.6763,213.2344 Q297.1763,213.2344 295.8481,211.5938 Q294.5356,209.9375 294.5356,206.8125 Q294.5356,203.6875 295.8481,202.0313 Q297.1763,200.375 299.6763,200.375 Q300.3794,200.375 301.02,200.5313 Q301.6763,200.6875 302.2388,200.9844 L302.2388,203.7031 Q301.6138,203.125 301.02,202.8594 Q300.4263,202.5781 299.8013,202.5781 Q298.4575,202.5781 297.77,203.6563 Q297.0825,204.7188 297.0825,206.8125 Q297.0825,208.9063 297.77,209.9844 Q298.4575,211.0469 299.8013,211.0469 Q300.4263,211.0469 301.02,210.7813 Q301.6138,210.5 302.2388,209.9219 L302.2388,212.6406 Z " fill="#FFFFFF"/><text fill="#FFFFFF" font-family="sans-serif" font-size="14" lengthAdjust="spacing" textLength="45.2061" x="313.27" y="211.8467">RollUp</text></g><!--reverse link GroupBy to GroupingSet--><g id="link_GroupBy_GroupingSet"><path codeLine="7" d="M123.77,51.27 C123.77,67.92 123.77,82.4 123.77,98.96 " fill="none" id="GroupBy-backto-GroupingSet" style="stroke:#E7E7E7;stroke-width:1.0;"/><polygon fill="none" points="123.77,39.27,119.77,45.27,123.77,51.27,127.77,45.27,123.77,39.27" style="stroke:#E7E7E7;stroke-width:1.0;"/></g><!--reverse link GroupBy to FieldSet--><g id="link_GroupBy_FieldSet"><path codeLine="8" d="M157.3236,46.2183 C175.7136,59.4783 190.04,73.55 200.77,99 C227.96,163.43 193.75,248.65 177.48,282.85 " fill="none" id="GroupBy-backto-FieldSet" style="stroke:#E7E7E7;stroke-width:1.0;"/><polygon fill="none" points="147.59,39.2,150.1173,45.9537,157.3236,46.2183,154.7962,39.4646,147.59,39.2" style="stroke:#E7E7E7;stroke-width:1.0;"/></g><!--reverse link GroupBy to Field--><g id="link_GroupBy_Field"><path codeLine="9" d="M86.4598,45.3792 C65.6698,58.3992 48.32,72.88 33.77,99 C6.81,147.41 6,169.59 20.77,223 C37.88,284.89 84.68,346.9 107.67,374.76 " fill="none" id="GroupBy-backto-Field" style="stroke:#E7E7E7;stroke-width:1.0;"/><polygon fill="none" points="96.63,39.01,89.4218,38.8045,86.4598,45.3792,93.668,45.5847,96.63,39.01" style="stroke:#E7E7E7;stroke-width:1.0;"/></g><!--reverse link GroupBy to Cube--><g id="link_GroupBy_Cube"><path codeLine="10" d="M89.8678,46.0705 C71.2478,59.3005 56.66,73.42 45.77,99 C32.41,130.38 50.69,169.85 63.06,190.99 " fill="none" id="GroupBy-backto-Cube" style="stroke:#E7E7E7;stroke-width:1.0;"/><polygon fill="none" points="99.65,39.12,92.4421,39.3345,89.8678,46.0705,97.0757,45.856,99.65,39.12" style="stroke:#E7E7E7;stroke-width:1.0;"/></g><!--reverse link GroupBy to RollUp--><g id="link_GroupBy_RollUp"><path codeLine="11" d="M176.4748,43.7504 C206.3648,56.2204 235.02,71.69 262.77,99 C290.25,126.04 308.87,168.33 317.42,190.79 " fill="none" id="GroupBy-backto-RollUp" style="stroke:#E7E7E7;stroke-width:1.0;"/><polygon fill="none" points="165.4,39.13,169.3973,45.1318,176.4748,43.7504,172.4775,37.7486,165.4,39.13" style="stroke:#E7E7E7;stroke-width:1.0;"/></g><!--reverse link GroupingSet to Cube--><g id="link_GroupingSet_Cube"><path codeLine="16" d="M109.2062,141.7116 C99.7762,158.3616 90.68,174.4 81.3,190.96 " fill="none" id="GroupingSet-backto-Cube" style="stroke:#E7E7E7;stroke-width:1.0;"/><polygon fill="none" points="115.12,131.27,108.6826,134.5195,109.2062,141.7116,115.6436,138.4621,115.12,131.27" style="stroke:#E7E7E7;stroke-width:1.0;"/></g><!--reverse link GroupingSet to RollUp--><g id="link_GroupingSet_RollUp"><path codeLine="17" d="M168.0133,136.0059 C204.7533,152.6259 252.58,174.25 289.36,190.89 " fill="none" id="GroupingSet-backto-RollUp" style="stroke:#E7E7E7;stroke-width:1.0;"/><polygon fill="none" points="157.08,131.06,160.898,137.1774,168.0133,136.0059,164.1953,129.8885,157.08,131.06" style="stroke:#E7E7E7;stroke-width:1.0;"/></g><!--reverse link GroupingSet to FieldSet--><g id="link_GroupingSet_FieldSet"><path codeLine="18" d="M130.5599,142.8343 C139.2399,177.1843 157.33,248.79 165.97,282.97 " fill="none" id="GroupingSet-backto-FieldSet" style="stroke:#E7E7E7;stroke-width:1.0;"/><polygon fill="none" points="127.62,131.2,125.2119,137.9971,130.5599,142.8343,132.9681,136.0372,127.62,131.2" style="stroke:#E7E7E7;stroke-width:1.0;"/></g><!--reverse link Cube to FieldSet--><g id="link_Cube_FieldSet"><path codeLine="23" d="M98.0256,231.4332 C115.9656,248.0832 135.71,266.4 153.56,282.96 " fill="none" id="Cube-backto-FieldSet" style="stroke:#E7E7E7;stroke-width:1.0;"/><polygon fill="none" points="89.23,223.27,90.9068,230.2835,98.0256,231.4332,96.3489,224.4197,89.23,223.27" style="stroke:#E7E7E7;stroke-width:1.0;"/></g><!--reverse link Cube to Field--><g id="link_Cube_Field"><path codeLine="24" d="M79.8404,234.8032 C88.9004,269.1532 107.79,340.79 116.81,374.97 " fill="none" id="Cube-backto-Field" style="stroke:#E7E7E7;stroke-width:1.0;"/><polygon fill="none" points="76.78,223.2,74.4425,230.0217,79.8404,234.8032,82.1779,227.9815,76.78,223.2" style="stroke:#E7E7E7;stroke-width:1.0;"/></g><!--reverse link RollUp to FieldSet--><g id="link_RollUp_FieldSet"><path codeLine="29" d="M286.8181,229.1465 C258.5781,245.7665 223.74,266.25 195.46,282.89 " fill="none" id="RollUp-backto-FieldSet" style="stroke:#E7E7E7;stroke-width:1.0;"/><polygon fill="none" points="297.16,223.06,289.9602,222.6559,286.8181,229.1465,294.0179,229.5505,297.16,223.06" style="stroke:#E7E7E7;stroke-width:1.0;"/></g><!--reverse link RollUp to Field--><g id="link_RollUp_Field"><path codeLine="30" d="M304.7546,232.9976 C288.7346,254.8476 264.3,285.89 231.77,315 C205.26,338.73 170.79,360.89 147.34,374.87 " fill="none" id="RollUp-backto-Field" style="stroke:#E7E7E7;stroke-width:1.0;"/><polygon fill="none" points="311.85,223.32,305.0764,225.7936,304.7546,232.9976,311.5282,230.5239,311.85,223.32" style="stroke:#E7E7E7;stroke-width:1.0;"/></g><!--reverse link FieldSet to Field--><g id="link_FieldSet_Field"><path codeLine="35" d="M155.7244,325.8105 C146.6644,342.4605 137.98,358.4 128.96,374.96 " fill="none" id="FieldSet-backto-Field" style="stroke:#E7E7E7;stroke-width:1.0;"/><polygon fill="none" points="161.46,315.27,155.0787,318.6284,155.7244,325.8105,162.1057,322.4521,161.46,315.27" style="stroke:#E7E7E7;stroke-width:1.0;"/></g><!--SRC=[ROvB3iCW30NtFWKNo2KQgTstwW4WM2aAFm5PH5NlthI6A8woiuStp-J9-2YJT3OC4sgXv32DASnUzy6694gIFgy1z0NWPJGATB4img5Jc3B0O6NEuhOgyRA8Dtm0sXAwZXwC7nzO6ByQjFeKCjBF2Xcu1skVaPsbzjtf2hY_WxNZYBSlrVAVIwt_YKKuQGOLarDdPXrPyrg0p6qxpr48lW00]--></g></svg>