<svg xmlns="http://www.w3.org/2000/svg" xmlns:xlink="http://www.w3.org/1999/xlink" contentStyleType="text/css" height="1077px" preserveAspectRatio="none" style="width:649px;height:1077px;" version="1.1" viewBox="0 0 649 1077" width="649px" zoomAndPan="magnify"><defs/><g><!--class SummaryMetadata--><g id="elem_SummaryMetadata"><rect codeLine="2" fill="#313139" height="349.0469" id="SummaryMetadata" rx="2.5" ry="2.5" style="stroke:#E7E7E7;stroke-width:0.5;" width="545.5381" x="97" y="7"/><ellipse cx="298.5439" cy="23" fill="#2E5233" rx="11" ry="11" style="stroke:#E7E7E7;stroke-width:1.0;"/><path d="M301.5127,28.6406 Q300.9346,28.9375 300.2939,29.0781 Q299.6533,29.2344 298.9502,29.2344 Q296.4502,29.2344 295.1221,27.5938 Q293.8096,25.9375 293.8096,22.8125 Q293.8096,19.6875 295.1221,18.0313 Q296.4502,16.375 298.9502,16.375 Q299.6533,16.375 300.2939,16.5313 Q300.9502,16.6875 301.5127,16.9844 L301.5127,19.7031 Q300.8877,19.125 300.2939,18.8594 Q299.7002,18.5781 299.0752,18.5781 Q297.7314,18.5781 297.0439,19.6563 Q296.3564,20.7188 296.3564,22.8125 Q296.3564,24.9063 297.0439,25.9844 Q297.7314,27.0469 299.0752,27.0469 Q299.7002,27.0469 300.2939,26.7813 Q300.8877,26.5 301.5127,25.9219 L301.5127,28.6406 Z " fill="#FFFFFF"/><text fill="#FFFFFF" font-family="sans-serif" font-size="14" lengthAdjust="spacing" textLength="133.9502" x="319.0439" y="27.8467">SummaryMetadata</text><line style="stroke:#E7E7E7;stroke-width:0.5;" x1="98" x2="641.5381" y1="39" y2="39"/><text fill="#FFFFFF" font-family="sans-serif" font-size="14" lengthAdjust="spacing" textLength="192.0557" x="103" y="55.9951">summaryClass: class-string</text><text fill="#FFFFFF" font-family="sans-serif" font-size="14" lengthAdjust="spacing" textLength="172.792" x="103" y="72.292">sourceClass: class-string</text><text fill="#FFFFFF" font-family="sans-serif" font-size="14" lengthAdjust="spacing" textLength="192.6846" x="103" y="88.5889">label: TranslatableInterface</text><text fill="#FFFFFF" font-family="sans-serif" font-size="14" lengthAdjust="spacing" textLength="208.8379" x="103" y="104.8857">attributes: AttributeCollection</text><text fill="#FFFFFF" font-family="sans-serif" font-size="14" lengthAdjust="spacing" textLength="203.4102" x="103" y="121.1826">involvedProperties: &lt;string&gt;</text><text fill="#FFFFFF" font-family="sans-serif" font-size="14" lengthAdjust="spacing" textLength="205.1465" x="103" y="137.4795">groupByExpression: GroupBy</text><line style="stroke:#E7E7E7;stroke-width:1.0;" x1="98" x2="641.5381" y1="144.7813" y2="144.7813"/><text fill="#FFFFFF" font-family="sans-serif" font-size="14" lengthAdjust="spacing" textLength="275.1055" x="103" y="161.7764">properties: &lt;string,PropertyMetadata&gt;</text><text fill="#FFFFFF" font-family="sans-serif" font-size="14" lengthAdjust="spacing" textLength="269.1514" x="103" y="178.0732">getProperty(string): PropertyMetadata</text><line style="stroke:#E7E7E7;stroke-width:1.0;" x1="98" x2="641.5381" y1="185.375" y2="185.375"/><text fill="#FFFFFF" font-family="sans-serif" font-size="14" lengthAdjust="spacing" textLength="193.8535" x="103" y="202.3701">partition: PartitionMetadata</text><text fill="#FFFFFF" font-family="sans-serif" font-size="14" lengthAdjust="spacing" textLength="179.0605" x="103" y="218.667">groupingsProperty: string</text><line style="stroke:#E7E7E7;stroke-width:1.0;" x1="98" x2="641.5381" y1="225.9688" y2="225.9688"/><text fill="#FFFFFF" font-family="sans-serif" font-size="14" lengthAdjust="spacing" textLength="328.0635" x="103" y="242.9639">rootDimensions: &lt;string,DimensionMetadata&gt;</text><text fill="#FFFFFF" font-family="sans-serif" font-size="14" lengthAdjust="spacing" textLength="330.7432" x="103" y="259.2607">getRootDimension(string): DimensionMetadata</text><text fill="#FFFFFF" font-family="sans-serif" font-size="14" lengthAdjust="spacing" textLength="530.9199" x="103" y="275.5576">leafDimensions: &lt;string,DimensionMetadata|DimensionPropertyMetadata&gt;</text><text fill="#FFFFFF" font-family="sans-serif" font-size="14" lengthAdjust="spacing" textLength="533.5381" x="103" y="291.8545">getLeafDimension(string): DimensionMetadata|DimensionPropertyMetadata</text><text fill="#FFFFFF" font-family="sans-serif" font-size="14" lengthAdjust="spacing" textLength="316.0459" x="103" y="308.1514">allDimensions: &lt;string,DimensionMetadata&gt;</text><line style="stroke:#E7E7E7;stroke-width:1.0;" x1="98" x2="641.5381" y1="315.4531" y2="315.4531"/><text fill="#FFFFFF" font-family="sans-serif" font-size="14" lengthAdjust="spacing" textLength="272.0293" x="103" y="332.4482">measures: &lt;string,MeasureMetadata&gt;</text><text fill="#FFFFFF" font-family="sans-serif" font-size="14" lengthAdjust="spacing" textLength="269.1787" x="103" y="348.7451">getMeasure(string): MeasureMetadata</text></g><!--class PropertyMetadata--><g id="elem_PropertyMetadata"><rect codeLine="26" fill="#313139" height="178.375" id="PropertyMetadata" rx="2.5" ry="2.5" style="stroke:#E7E7E7;stroke-width:0.5;" width="287.4746" x="226.5" y="416"/><ellipse cx="302.9429" cy="432" fill="#2A5D60" rx="11" ry="11" style="stroke:#E7E7E7;stroke-width:1.0;"/><path d="M303.0522,427.3438 L301.896,432.4219 L304.2241,432.4219 L303.0522,427.3438 Z M301.5679,425.1094 L304.5522,425.1094 L307.9116,437.5 L305.4585,437.5 L304.6929,434.4375 L301.4116,434.4375 L300.6616,437.5 L298.2241,437.5 L301.5679,425.1094 Z " fill="#FFFFFF"/><text fill="#FFFFFF" font-family="sans-serif" font-size="14" font-style="italic" lengthAdjust="spacing" textLength="126.0889" x="323.4429" y="436.8467">PropertyMetadata</text><line style="stroke:#E7E7E7;stroke-width:0.5;" x1="227.5" x2="512.9746" y1="448" y2="448"/><text fill="#FFFFFF" font-family="sans-serif" font-size="14" lengthAdjust="spacing" textLength="89.0586" x="232.5" y="464.9951">name: string</text><text fill="#FFFFFF" font-family="sans-serif" font-size="14" lengthAdjust="spacing" textLength="150.8965" x="232.5" y="481.292">propertyName: string</text><text fill="#FFFFFF" font-family="sans-serif" font-size="14" lengthAdjust="spacing" textLength="192.6846" x="232.5" y="497.5889">label: TranslatableInterface</text><text fill="#FFFFFF" font-family="sans-serif" font-size="14" lengthAdjust="spacing" textLength="157.2676" x="232.5" y="513.8857">typeClass: class-string</text><text fill="#FFFFFF" font-family="sans-serif" font-size="14" lengthAdjust="spacing" textLength="87.0967" x="232.5" y="530.1826">hidden: bool</text><text fill="#FFFFFF" font-family="sans-serif" font-size="14" lengthAdjust="spacing" textLength="208.8379" x="232.5" y="546.4795">attributes: AttributeCollection</text><text fill="#FFFFFF" font-family="sans-serif" font-size="14" lengthAdjust="spacing" textLength="251.8018" x="232.5" y="562.7764">involvedSourceProperties: &lt;string&gt;</text><text fill="#FFFFFF" font-family="sans-serif" font-size="14" lengthAdjust="spacing" textLength="275.4746" x="232.5" y="579.0732">summaryMetadata: SummaryMetadata</text><line style="stroke:#E7E7E7;stroke-width:0.5;" x1="227.5" x2="512.9746" y1="586.375" y2="586.375"/></g><!--class PartitionMetadata--><g id="elem_PartitionMetadata"><rect codeLine="39" fill="#313139" height="145.7813" id="PartitionMetadata" rx="2.5" ry="2.5" style="stroke:#E7E7E7;stroke-width:0.5;" width="309.7598" x="7" y="654"/><ellipse cx="94.9956" cy="670" fill="#2E5233" rx="11" ry="11" style="stroke:#E7E7E7;stroke-width:1.0;"/><path d="M97.9644,675.6406 Q97.3862,675.9375 96.7456,676.0781 Q96.105,676.2344 95.4019,676.2344 Q92.9019,676.2344 91.5737,674.5938 Q90.2612,672.9375 90.2612,669.8125 Q90.2612,666.6875 91.5737,665.0313 Q92.9019,663.375 95.4019,663.375 Q96.105,663.375 96.7456,663.5313 Q97.4019,663.6875 97.9644,663.9844 L97.9644,666.7031 Q97.3394,666.125 96.7456,665.8594 Q96.1519,665.5781 95.5269,665.5781 Q94.1831,665.5781 93.4956,666.6563 Q92.8081,667.7188 92.8081,669.8125 Q92.8081,671.9063 93.4956,672.9844 Q94.1831,674.0469 95.5269,674.0469 Q96.1519,674.0469 96.7456,673.7813 Q97.3394,673.5 97.9644,672.9219 L97.9644,675.6406 Z " fill="#FFFFFF"/><text fill="#FFFFFF" font-family="sans-serif" font-size="14" lengthAdjust="spacing" textLength="125.2686" x="115.4956" y="674.8467">PartitionMetadata</text><line style="stroke:#E7E7E7;stroke-width:0.5;" x1="8" x2="315.7598" y1="686" y2="686"/><text fill="#FFFFFF" font-family="sans-serif" font-size="14" lengthAdjust="spacing" textLength="215.2158" x="13" y="702.9951">source: PartitionValueResolver</text><text fill="#FFFFFF" font-family="sans-serif" font-size="14" lengthAdjust="spacing" textLength="185.4111" x="13" y="719.292">partitionClass: class-string</text><text fill="#FFFFFF" font-family="sans-serif" font-size="14" lengthAdjust="spacing" textLength="205.7686" x="13" y="735.5889">partitionLevelProperty: string</text><text fill="#FFFFFF" font-family="sans-serif" font-size="14" lengthAdjust="spacing" textLength="194.6465" x="13" y="751.8857">partitionKeyProperty: string</text><text fill="#FFFFFF" font-family="sans-serif" font-size="14" lengthAdjust="spacing" textLength="286.6377" x="13" y="768.1826">fullyQualifiedPartitionKeyProperty: string</text><text fill="#FFFFFF" font-family="sans-serif" font-size="14" lengthAdjust="spacing" textLength="297.7598" x="13" y="784.4795">fullyQualifiedPartitionLevelProperty: string</text><line style="stroke:#E7E7E7;stroke-width:0.5;" x1="8" x2="315.7598" y1="791.7813" y2="791.7813"/></g><!--class DimensionMetadata--><g id="elem_DimensionMetadata"><rect codeLine="50" fill="#313139" height="210.9688" id="DimensionMetadata" rx="2.5" ry="2.5" style="stroke:#E7E7E7;stroke-width:0.5;" width="319.0771" x="210.5" y="860"/><ellipse cx="295.4331" cy="876" fill="#2E5233" rx="11" ry="11" style="stroke:#E7E7E7;stroke-width:1.0;"/><path d="M298.4019,881.6406 Q297.8237,881.9375 297.1831,882.0781 Q296.5425,882.2344 295.8394,882.2344 Q293.3394,882.2344 292.0112,880.5938 Q290.6987,878.9375 290.6987,875.8125 Q290.6987,872.6875 292.0112,871.0313 Q293.3394,869.375 295.8394,869.375 Q296.5425,869.375 297.1831,869.5313 Q297.8394,869.6875 298.4019,869.9844 L298.4019,872.7031 Q297.7769,872.125 297.1831,871.8594 Q296.5894,871.5781 295.9644,871.5781 Q294.6206,871.5781 293.9331,872.6563 Q293.2456,873.7188 293.2456,875.8125 Q293.2456,877.9063 293.9331,878.9844 Q294.6206,880.0469 295.9644,880.0469 Q296.5894,880.0469 297.1831,879.7813 Q297.7769,879.5 298.4019,878.9219 L298.4019,881.6406 Z " fill="#FFFFFF"/><text fill="#FFFFFF" font-family="sans-serif" font-size="14" lengthAdjust="spacing" textLength="140.7109" x="315.9331" y="880.8467">DimensionMetadata</text><line style="stroke:#E7E7E7;stroke-width:0.5;" x1="211.5" x2="528.5771" y1="892" y2="892"/><text fill="#FFFFFF" font-family="sans-serif" font-size="14" lengthAdjust="spacing" textLength="208.4277" x="216.5" y="908.9951">valueResolver: ValueResolver</text><text fill="#FFFFFF" font-family="sans-serif" font-size="14" lengthAdjust="spacing" textLength="167.9863" x="216.5" y="925.292">orderBy: array|Ordering</text><text fill="#FFFFFF" font-family="sans-serif" font-size="14" lengthAdjust="spacing" textLength="222.1201" x="216.5" y="941.5889">nullLabel: TranslatableInterface</text><text fill="#FFFFFF" font-family="sans-serif" font-size="14" lengthAdjust="spacing" textLength="104.248" x="216.5" y="957.8857">dqlAlias: string</text><text fill="#FFFFFF" font-family="sans-serif" font-size="14" lengthAdjust="spacing" textLength="260.8115" x="216.5" y="974.1826">orderBy: &lt;string,Ordering&gt;|Ordering</text><text fill="#FFFFFF" font-family="sans-serif" font-size="14" lengthAdjust="spacing" textLength="256.334" x="216.5" y="990.4795">groupingStrategy: GroupingStrategy</text><text fill="#FFFFFF" font-family="sans-serif" font-size="14" lengthAdjust="spacing" textLength="176.1963" x="216.5" y="1006.7764">groupByExpression: Item</text><text fill="#FFFFFF" font-family="sans-serif" font-size="14" lengthAdjust="spacing" textLength="203.5059" x="216.5" y="1023.0732">parent: ?DimensionMetadata</text><text fill="#FFFFFF" font-family="sans-serif" font-size="14" lengthAdjust="spacing" textLength="274.4561" x="216.5" y="1039.3701">children: &lt;string,DimensionMetadata&gt;</text><text fill="#FFFFFF" font-family="sans-serif" font-size="14" lengthAdjust="spacing" textLength="307.0771" x="216.5" y="1055.667">descendants: &lt;string,DimensionMetadata&gt;</text><line style="stroke:#E7E7E7;stroke-width:0.5;" x1="211.5" x2="528.5771" y1="1062.9688" y2="1062.9688"/></g><!--class MeasureMetadata--><g id="elem_MeasureMetadata"><rect codeLine="66" fill="#313139" height="113.1875" id="MeasureMetadata" rx="2.5" ry="2.5" style="stroke:#E7E7E7;stroke-width:0.5;" width="211.958" x="423" y="670.5"/><ellipse cx="462.235" cy="686.5" fill="#2E5233" rx="11" ry="11" style="stroke:#E7E7E7;stroke-width:1.0;"/><path d="M465.2037,692.1406 Q464.6256,692.4375 463.985,692.5781 Q463.3443,692.7344 462.6412,692.7344 Q460.1412,692.7344 458.8131,691.0938 Q457.5006,689.4375 457.5006,686.3125 Q457.5006,683.1875 458.8131,681.5313 Q460.1412,679.875 462.6412,679.875 Q463.3443,679.875 463.985,680.0313 Q464.6412,680.1875 465.2037,680.4844 L465.2037,683.2031 Q464.5787,682.625 463.985,682.3594 Q463.3912,682.0781 462.7662,682.0781 Q461.4225,682.0781 460.735,683.1563 Q460.0475,684.2188 460.0475,686.3125 Q460.0475,688.4063 460.735,689.4844 Q461.4225,690.5469 462.7662,690.5469 Q463.3912,690.5469 463.985,690.2813 Q464.5787,690 465.2037,689.4219 L465.2037,692.1406 Z " fill="#FFFFFF"/><text fill="#FFFFFF" font-family="sans-serif" font-size="14" lengthAdjust="spacing" textLength="126.1025" x="481.6205" y="691.3467">MeasureMetadata</text><line style="stroke:#E7E7E7;stroke-width:0.5;" x1="424" x2="633.958" y1="702.5" y2="702.5"/><text fill="#FFFFFF" font-family="sans-serif" font-size="14" lengthAdjust="spacing" textLength="199.958" x="429" y="719.4951">function: AggregateFunction</text><text fill="#FFFFFF" font-family="sans-serif" font-size="14" lengthAdjust="spacing" textLength="193.3818" x="429" y="735.792">unit: ?TranslatableInterface</text><text fill="#FFFFFF" font-family="sans-serif" font-size="14" lengthAdjust="spacing" textLength="151.7578" x="429" y="752.0889">unitSignature: ?string</text><text fill="#FFFFFF" font-family="sans-serif" font-size="14" lengthAdjust="spacing" textLength="83.8359" x="429" y="768.3857">virtual: bool</text><line style="stroke:#E7E7E7;stroke-width:0.5;" x1="424" x2="633.958" y1="775.6875" y2="775.6875"/></g><!--reverse link SummaryMetadata to PropertyMetadata--><g id="link_SummaryMetadata_PropertyMetadata"><path codeLine="37" d="M370,368.42 C370,388.99 370,397.26 370,415.89 " fill="none" id="SummaryMetadata-backto-PropertyMetadata" style="stroke:#E7E7E7;stroke-width:1.0;"/><polygon fill="#E7E7E7" points="370,356.42,366,362.42,370,368.42,374,362.42,370,356.42" style="stroke:#E7E7E7;stroke-width:1.0;"/></g><!--reverse link PropertyMetadata to PartitionMetadata--><g id="link_PropertyMetadata_PartitionMetadata"><path codeLine="48" d="M274.2363,607.292 C255.4763,627.142 248.14,634.89 230.09,653.98 " fill="none" id="PropertyMetadata-backto-PartitionMetadata" style="stroke:#E7E7E7;stroke-width:1.0;"/><polygon fill="none" points="286.6,594.21,269.8756,603.1708,278.597,611.4133,286.6,594.21" style="stroke:#E7E7E7;stroke-width:1.0;"/></g><!--reverse link PropertyMetadata to DimensionMetadata--><g id="link_PropertyMetadata_DimensionMetadata"><path codeLine="63" d="M370,612.13 C370,687.96 370,779.5 370,859.78 " fill="none" id="PropertyMetadata-backto-DimensionMetadata" style="stroke:#E7E7E7;stroke-width:1.0;"/><polygon fill="none" points="370,594.13,364,612.13,376,612.13,370,594.13" style="stroke:#E7E7E7;stroke-width:1.0;"/></g><!--reverse link DimensionMetadata to DimensionMetadata--><g id="link_DimensionMetadata_DimensionMetadata"><path codeLine="64" d="M541.2766,929.966 C562.1266,936.716 564.5,946.09 564.5,965.5 C564.5,984.91 550.71,997.98 529.86,1004.73 " fill="none" id="DimensionMetadata-backto-DimensionMetadata" style="stroke:#E7E7E7;stroke-width:1.0;"/><polygon fill="#E7E7E7" points="529.86,926.27,534.3363,931.9236,541.2766,929.966,536.8003,924.3125,529.86,926.27" style="stroke:#E7E7E7;stroke-width:1.0;"/></g><!--reverse link PropertyMetadata to MeasureMetadata--><g id="link_PropertyMetadata_MeasureMetadata"><path codeLine="73" d="M444.2995,608.8018 C462.8695,634.5118 472.1,647.27 488.79,670.36 " fill="none" id="PropertyMetadata-backto-MeasureMetadata" style="stroke:#E7E7E7;stroke-width:1.0;"/><polygon fill="none" points="433.76,594.21,439.4355,612.3149,449.1634,605.2886,433.76,594.21" style="stroke:#E7E7E7;stroke-width:1.0;"/></g><!--SRC=[dLN1SjCm4BtxAtI43lu1JwTCMWhJ8ONICDpNziRLH9QC96Vm4FuTIPPSsx8RIYv9Tv-ULhlxNjM1yWOar4mK1on93iMXagBbvOrWGX8jWIi3GAwJf62W5DcrTGsokqSD9MWWlnDYFggFtbX8HXmoLLfINlLfqSe2rx8CScGP-MulOuOpPtZ7DSez5EW0e0quRpMQqvlmsrJ8iD1KS8UX_2ZO4Si7AHgKcbhiPN_9bGFOTpNNtUslHg9IvbX6FlKXbqxJr7qtyVbtddDuj2T47H9lUk3RZCoXKsumnDfT_H1-Je2kHaEa0ar6HdqAD588_O7MoEqhHcKEiQZEn_69vsAZ0_qu4FR_H7yQ8giDsewvNhXudQfV0CPUyU3Gfnf1jN8yoFi-4fNfuyy5pe39doI1t6IXqD68lGGur3WPbz-axiiySNRVTTUiYkM9bYMQ1Sg5OAyMnyxfS5KYQghjR2vssuQv_Y_ID5vwxnNHaWUtS6MCHF03M8kFg6oHSYgLjJuCW2qUaItgPO1yncuHi6yPwxwrmEYU6kVuJ_Xo0QPLqQ9Sdcop8kNxRaNRxBjr73Sd8t6lX2nHNfkhGKheJb_jdw5cRchUdjktyYVRC0fgyjg1DOWdy5vDRmYUjJFgq5XrtbP7aJNxlTDOXq6P_p0PURziICKJPQMqItz6-2Mg0da9NBzi4ckpIHSSCPxAnIBE3t5c77w4-vONlUzlgafYPThoqOTSlkNKFdzzGXQmenK7RSWDSZId8vNQxAHtXDMrcplQNm00]--></g></svg>